<svg width="87" height="29" viewBox="0 0 87 29" fill="none" xmlns="http://www.w3.org/2000/svg">
<path d="M16.3477 15.377C16.0417 15.8717 15.6283 16.3633 15.1074 16.8516C14.5866 17.3333 13.9909 17.7695 13.3203 18.1602C12.6562 18.5443 11.9303 18.8535 11.1426 19.0879C10.3548 19.3288 9.54102 19.4492 8.70117 19.4492C8.04362 19.4492 7.38607 19.3906 6.72852 19.2734C6.07747 19.1562 5.44922 18.9772 4.84375 18.7363C4.24479 18.4954 3.6849 18.1927 3.16406 17.8281C2.64974 17.457 2.20052 17.0208 1.81641 16.5195C1.43229 16.0182 1.12956 15.4486 0.908203 14.8105C0.693359 14.1725 0.585938 13.4629 0.585938 12.6816C0.585938 11.9199 0.696615 11.1973 0.917969 10.5137C1.14583 9.83008 1.46159 9.19857 1.86523 8.61914C2.26888 8.0332 2.7474 7.50586 3.30078 7.03711C3.85417 6.56836 4.45964 6.17122 5.11719 5.8457C5.77474 5.51367 6.4681 5.25977 7.19727 5.08398C7.92643 4.9082 8.67188 4.82031 9.43359 4.82031C10.2734 4.82031 11.0612 4.92122 11.7969 5.12305C12.5391 5.31836 13.1868 5.59831 13.7402 5.96289C14.2936 6.32096 14.7298 6.75391 15.0488 7.26172C15.3743 7.76302 15.5371 8.32292 15.5371 8.94141C15.5371 9.51432 15.4036 10.0612 15.1367 10.582C14.8698 11.0964 14.502 11.5488 14.0332 11.9395C13.571 12.3301 13.0273 12.6393 12.4023 12.8672C11.7839 13.0951 11.123 13.209 10.4199 13.209C9.85352 13.209 9.35221 13.1406 8.91602 13.0039C8.47982 12.8607 8.11523 12.6654 7.82227 12.418C7.5293 12.1706 7.30794 11.8809 7.1582 11.5488C7.00846 11.2168 6.93359 10.8587 6.93359 10.4746C6.93359 10.1556 6.98242 9.86589 7.08008 9.60547C7.18424 9.33854 7.29492 9.11068 7.41211 8.92188C7.53581 8.73307 7.64974 8.58659 7.75391 8.48242C7.86458 8.37174 7.92643 8.3099 7.93945 8.29688C7.97201 8.26432 8.00781 8.24479 8.04688 8.23828C8.09245 8.22526 8.13477 8.21875 8.17383 8.21875C8.27799 8.21875 8.36589 8.2513 8.4375 8.31641C8.50911 8.38151 8.54492 8.46615 8.54492 8.57031C8.54492 8.6875 8.5026 8.78516 8.41797 8.86328C8.40495 8.86979 8.35938 8.91536 8.28125 9C8.20312 9.07812 8.11849 9.1888 8.02734 9.33203C7.9362 9.46875 7.85156 9.63477 7.77344 9.83008C7.70182 10.0254 7.66602 10.2402 7.66602 10.4746C7.66602 10.8457 7.7474 11.1582 7.91016 11.4121C8.07943 11.666 8.29753 11.8743 8.56445 12.0371C8.83138 12.1934 9.1276 12.3073 9.45312 12.3789C9.77865 12.444 10.1042 12.4766 10.4297 12.4766C11.0352 12.4766 11.6016 12.3789 12.1289 12.1836C12.6628 11.9883 13.1283 11.7279 13.5254 11.4023C13.9225 11.0768 14.235 10.7025 14.4629 10.2793C14.6908 9.85612 14.8047 9.41341 14.8047 8.95117C14.8047 8.44336 14.6615 7.98112 14.375 7.56445C14.0885 7.14128 13.7012 6.7832 13.2129 6.49023C12.7246 6.19076 12.1517 5.95964 11.4941 5.79688C10.8431 5.63411 10.1465 5.55273 9.4043 5.55273C8.8444 5.55273 8.25521 5.62109 7.63672 5.75781C7.02474 5.88802 6.41927 6.08659 5.82031 6.35352C5.22135 6.62044 4.64844 6.95247 4.10156 7.34961C3.5612 7.74674 3.08594 8.21224 2.67578 8.74609C2.26562 9.27344 1.93685 9.86589 1.68945 10.5234C1.44857 11.181 1.32812 11.9004 1.32812 12.6816C1.32812 13.3913 1.42578 14.0326 1.62109 14.6055C1.82292 15.1784 2.09961 15.6895 2.45117 16.1387C2.80273 16.5814 3.21289 16.9655 3.68164 17.291C4.1569 17.6165 4.66471 17.8867 5.20508 18.1016C5.75195 18.3099 6.32161 18.4661 6.91406 18.5703C7.50651 18.668 8.0957 18.7168 8.68164 18.7168C9.46289 18.7168 10.2148 18.6094 10.9375 18.3945C11.6602 18.1732 12.3275 17.8867 12.9395 17.5352C13.5579 17.1771 14.1048 16.7767 14.5801 16.334C15.0553 15.8913 15.4329 15.4453 15.7129 14.9961C15.7454 14.9375 15.791 14.8952 15.8496 14.8691C15.9082 14.8366 15.9701 14.8203 16.0352 14.8203C16.1458 14.8203 16.2337 14.8594 16.2988 14.9375C16.3639 15.0091 16.3965 15.0905 16.3965 15.1816C16.3965 15.2142 16.3932 15.2467 16.3867 15.2793C16.3802 15.3118 16.3672 15.3444 16.3477 15.377ZM21.8652 17.9258C21.7025 17.9258 21.5592 17.9128 21.4355 17.8867C21.3379 18.082 21.2207 18.2643 21.084 18.4336C20.9473 18.5964 20.7878 18.7396 20.6055 18.8633C20.4297 18.987 20.2311 19.0846 20.0098 19.1562C19.7884 19.2279 19.5475 19.2637 19.2871 19.2637C18.9811 19.2637 18.7012 19.2083 18.4473 19.0977C18.1934 18.9935 17.972 18.847 17.7832 18.6582C17.5944 18.4629 17.4479 18.2318 17.3438 17.9648C17.2396 17.6914 17.1875 17.3919 17.1875 17.0664C17.1875 16.6497 17.2624 16.2884 17.4121 15.9824C17.5618 15.6699 17.7344 15.4128 17.9297 15.2109C18.125 15.0026 18.3203 14.8496 18.5156 14.752C18.7109 14.6478 18.8574 14.5957 18.9551 14.5957C19.0658 14.5957 19.1471 14.625 19.1992 14.6836C19.2578 14.7422 19.2871 14.8203 19.2871 14.918C19.2871 15.0286 19.2513 15.1133 19.1797 15.1719C19.1146 15.224 19.0299 15.276 18.9258 15.3281C18.8216 15.3802 18.7109 15.4551 18.5938 15.5527C18.4766 15.6439 18.3659 15.7611 18.2617 15.9043C18.1641 16.0475 18.0827 16.2168 18.0176 16.4121C17.9525 16.6074 17.9199 16.8255 17.9199 17.0664C17.9199 17.2812 17.9525 17.4831 18.0176 17.6719C18.0827 17.8542 18.1771 18.0137 18.3008 18.1504C18.4245 18.2806 18.571 18.3848 18.7402 18.4629C18.9095 18.5345 19.0983 18.5703 19.3066 18.5703C19.6777 18.5703 19.9837 18.4857 20.2246 18.3164C20.472 18.1406 20.6608 17.9193 20.791 17.6523C20.4069 17.4505 20.0911 17.1641 19.8438 16.793C19.5964 16.4219 19.4727 16.0052 19.4727 15.543C19.4727 15.1719 19.5605 14.8691 19.7363 14.6348C19.9186 14.4004 20.1562 14.2832 20.4492 14.2832C20.625 14.2832 20.791 14.3255 20.9473 14.4102C21.1035 14.4948 21.2402 14.6283 21.3574 14.8105C21.4811 14.9928 21.5788 15.2272 21.6504 15.5137C21.722 15.8001 21.7578 16.1419 21.7578 16.5391C21.7578 16.7474 21.7318 16.9655 21.6797 17.1934C21.7188 17.1999 21.7578 17.2031 21.7969 17.2031C21.8359 17.2031 21.8783 17.2031 21.9238 17.2031C22.1452 17.2031 22.3438 17.1771 22.5195 17.125C22.6953 17.0729 22.8548 16.9948 22.998 16.8906C23.1413 16.7865 23.2682 16.653 23.3789 16.4902C23.4961 16.3275 23.6068 16.1387 23.7109 15.9238C23.7305 15.8848 23.7728 15.849 23.8379 15.8164C23.903 15.7773 23.9681 15.7578 24.0332 15.7578C24.1178 15.7578 24.196 15.7936 24.2676 15.8652C24.3457 15.9303 24.3848 16.0182 24.3848 16.1289C24.3848 16.181 24.3717 16.2396 24.3457 16.3047C24.3197 16.3633 24.2936 16.4186 24.2676 16.4707C24.1569 16.666 24.0267 16.8548 23.877 17.0371C23.7337 17.2129 23.5612 17.3691 23.3594 17.5059C23.1641 17.6361 22.9427 17.7402 22.6953 17.8184C22.4479 17.8965 22.1712 17.9323 21.8652 17.9258ZM20.1953 15.4648C20.1953 15.5885 20.2116 15.7188 20.2441 15.8555C20.2767 15.9922 20.3255 16.1289 20.3906 16.2656C20.4622 16.3958 20.5469 16.5228 20.6445 16.6465C20.7487 16.7637 20.8691 16.8646 21.0059 16.9492C21.0254 16.8125 21.0352 16.679 21.0352 16.5488C21.0352 16.373 21.0221 16.194 20.9961 16.0117C20.9701 15.8294 20.931 15.6634 20.8789 15.5137C20.8333 15.3574 20.7747 15.2337 20.7031 15.1426C20.6315 15.0449 20.5469 14.9961 20.4492 14.9961C20.4102 14.9961 20.3581 15.0254 20.293 15.084C20.2279 15.1426 20.1953 15.2695 20.1953 15.4648ZM24.4531 19.4785C24.9349 19.2637 25.3711 19.0163 25.7617 18.7363C26.1589 18.4564 26.5104 18.1634 26.8164 17.8574C27.1289 17.5449 27.3926 17.2292 27.6074 16.9102C27.8288 16.5846 28.0046 16.2754 28.1348 15.9824C28.1934 15.8392 28.304 15.7676 28.4668 15.7676C28.5775 15.7676 28.6654 15.8066 28.7305 15.8848C28.8021 15.9564 28.8379 16.0378 28.8379 16.1289C28.8379 16.181 28.8281 16.2298 28.8086 16.2754C28.6654 16.5944 28.4831 16.9264 28.2617 17.2715C28.0404 17.61 27.7702 17.9453 27.4512 18.2773C27.1387 18.6029 26.7708 18.9186 26.3477 19.2246C25.9245 19.5306 25.4395 19.8105 24.8926 20.0645C25.2441 20.429 25.5501 20.8327 25.8105 21.2754C26.071 21.7246 26.2858 22.1901 26.4551 22.6719C26.6309 23.1536 26.7611 23.6387 26.8457 24.127C26.9368 24.6217 26.9824 25.0938 26.9824 25.543C26.9824 25.9531 26.9434 26.3372 26.8652 26.6953C26.7936 27.0599 26.6829 27.3757 26.5332 27.6426C26.39 27.9095 26.2142 28.1178 26.0059 28.2676C25.7975 28.4238 25.5599 28.502 25.293 28.502C24.9023 28.502 24.5996 28.3555 24.3848 28.0625C24.1699 27.776 24.0104 27.3757 23.9062 26.8613C23.8086 26.3535 23.75 25.7513 23.7305 25.0547C23.7174 24.3646 23.7109 23.6126 23.7109 22.7988C23.7109 22.3952 23.7109 21.9232 23.7109 21.3828C23.7109 20.849 23.7109 20.2728 23.7109 19.6543C23.7174 19.0423 23.7207 18.401 23.7207 17.7305C23.7272 17.0534 23.7337 16.3763 23.7402 15.6992C23.7467 15.0221 23.7533 14.3581 23.7598 13.707C23.7663 13.0495 23.776 12.4277 23.7891 11.8418C23.8086 10.722 23.8477 9.72266 23.9062 8.84375C23.9648 7.96484 24.0592 7.22266 24.1895 6.61719C24.3197 6.01172 24.4954 5.55273 24.7168 5.24023C24.9447 4.92122 25.2311 4.76172 25.5762 4.76172C25.8496 4.76172 26.0807 4.83984 26.2695 4.99609C26.4583 5.14583 26.6113 5.35091 26.7285 5.61133C26.8457 5.86523 26.9303 6.16471 26.9824 6.50977C27.0345 6.85482 27.0605 7.21615 27.0605 7.59375C27.0605 8.38802 26.9922 9.15625 26.8555 9.89844C26.7188 10.6406 26.5332 11.36 26.2988 12.0566C26.0645 12.7533 25.7878 13.4336 25.4688 14.0977C25.1562 14.7617 24.821 15.416 24.4629 16.0605C24.4629 16.3275 24.4629 16.6172 24.4629 16.9297C24.4629 17.2357 24.4629 17.5449 24.4629 17.8574C24.4629 18.1634 24.4596 18.4596 24.4531 18.7461C24.4531 19.026 24.4531 19.2702 24.4531 19.4785ZM24.4824 14.5566C24.7493 14.0553 24.9935 13.528 25.2148 12.9746C25.4427 12.4147 25.638 11.8385 25.8008 11.2461C25.9635 10.6536 26.0905 10.0482 26.1816 9.42969C26.2728 8.8112 26.3184 8.18945 26.3184 7.56445C26.3184 7.25195 26.3021 6.96875 26.2695 6.71484C26.2435 6.46094 26.1979 6.24609 26.1328 6.07031C26.0742 5.88802 25.9961 5.74805 25.8984 5.65039C25.8073 5.54622 25.6999 5.49414 25.5762 5.49414C25.446 5.49414 25.332 5.57227 25.2344 5.72852C25.1367 5.88477 25.0521 6.0931 24.9805 6.35352C24.9089 6.61393 24.847 6.91341 24.7949 7.25195C24.7493 7.59049 24.7103 7.94531 24.6777 8.31641C24.6452 8.68099 24.6191 9.04883 24.5996 9.41992C24.5801 9.78451 24.5638 10.1296 24.5508 10.4551C24.5443 10.7741 24.5378 11.0573 24.5312 11.3047C24.5312 11.5521 24.5312 11.7376 24.5312 11.8613C24.5247 12.1217 24.5182 12.3529 24.5117 12.5547C24.5117 12.7565 24.5085 12.9551 24.502 13.1504C24.4954 13.3457 24.4889 13.554 24.4824 13.7754C24.4824 13.9967 24.4824 14.2572 24.4824 14.5566ZM24.4531 20.6797C24.4531 21.0898 24.4499 21.4707 24.4434 21.8223C24.4434 22.1803 24.4434 22.5059 24.4434 22.7988C24.4434 23.4043 24.4466 24.0033 24.4531 24.5957C24.4596 25.1882 24.4889 25.7188 24.541 26.1875C24.5996 26.6628 24.6842 27.0436 24.7949 27.3301C24.9121 27.623 25.0781 27.7695 25.293 27.7695C25.4883 27.7695 25.6478 27.6816 25.7715 27.5059C25.8952 27.3301 25.9896 27.1217 26.0547 26.8809C26.1263 26.64 26.1751 26.3926 26.2012 26.1387C26.2272 25.8913 26.2402 25.6895 26.2402 25.5332C26.2402 25.1361 26.2012 24.7194 26.123 24.2832C26.0514 23.847 25.9375 23.4141 25.7812 22.9844C25.6315 22.5612 25.446 22.151 25.2246 21.7539C25.0033 21.3568 24.7461 20.9987 24.4531 20.6797ZM28.9062 19.4785C29.388 19.2637 29.8242 19.0163 30.2148 18.7363C30.612 18.4564 30.9635 18.1634 31.2695 17.8574C31.582 17.5449 31.8457 17.2292 32.0605 16.9102C32.2819 16.5846 32.4577 16.2754 32.5879 15.9824C32.6465 15.8392 32.7572 15.7676 32.9199 15.7676C33.0306 15.7676 33.1185 15.8066 33.1836 15.8848C33.2552 15.9564 33.291 16.0378 33.291 16.1289C33.291 16.181 33.2812 16.2298 33.2617 16.2754C33.1185 16.5944 32.9362 16.9264 32.7148 17.2715C32.4935 17.61 32.2233 17.9453 31.9043 18.2773C31.5918 18.6029 31.224 18.9186 30.8008 19.2246C30.3776 19.5306 29.8926 19.8105 29.3457 20.0645C29.6973 20.429 30.0033 20.8327 30.2637 21.2754C30.5241 21.7246 30.7389 22.1901 30.9082 22.6719C31.084 23.1536 31.2142 23.6387 31.2988 24.127C31.39 24.6217 31.4355 25.0938 31.4355 25.543C31.4355 25.9531 31.3965 26.3372 31.3184 26.6953C31.2467 27.0599 31.1361 27.3757 30.9863 27.6426C30.8431 27.9095 30.6673 28.1178 30.459 28.2676C30.2507 28.4238 30.013 28.502 29.7461 28.502C29.3555 28.502 29.0527 28.3555 28.8379 28.0625C28.623 27.776 28.4635 27.3757 28.3594 26.8613C28.2617 26.3535 28.2031 25.7513 28.1836 25.0547C28.1706 24.3646 28.1641 23.6126 28.1641 22.7988C28.1641 22.3952 28.1641 21.9232 28.1641 21.3828C28.1641 20.849 28.1641 20.2728 28.1641 19.6543C28.1706 19.0423 28.1738 18.401 28.1738 17.7305C28.1803 17.0534 28.1868 16.3763 28.1934 15.6992C28.1999 15.0221 28.2064 14.3581 28.2129 13.707C28.2194 13.0495 28.2292 12.4277 28.2422 11.8418C28.2617 10.722 28.3008 9.72266 28.3594 8.84375C28.418 7.96484 28.5124 7.22266 28.6426 6.61719C28.7728 6.01172 28.9486 5.55273 29.1699 5.24023C29.3978 4.92122 29.6842 4.76172 30.0293 4.76172C30.3027 4.76172 30.5339 4.83984 30.7227 4.99609C30.9115 5.14583 31.0645 5.35091 31.1816 5.61133C31.2988 5.86523 31.3835 6.16471 31.4355 6.50977C31.4876 6.85482 31.5137 7.21615 31.5137 7.59375C31.5137 8.38802 31.4453 9.15625 31.3086 9.89844C31.1719 10.6406 30.9863 11.36 30.752 12.0566C30.5176 12.7533 30.2409 13.4336 29.9219 14.0977C29.6094 14.7617 29.2741 15.416 28.916 16.0605C28.916 16.3275 28.916 16.6172 28.916 16.9297C28.916 17.2357 28.916 17.5449 28.916 17.8574C28.916 18.1634 28.9128 18.4596 28.9062 18.7461C28.9062 19.026 28.9062 19.2702 28.9062 19.4785ZM28.9355 14.5566C29.2025 14.0553 29.4466 13.528 29.668 12.9746C29.8958 12.4147 30.0911 11.8385 30.2539 11.2461C30.4167 10.6536 30.5436 10.0482 30.6348 9.42969C30.7259 8.8112 30.7715 8.18945 30.7715 7.56445C30.7715 7.25195 30.7552 6.96875 30.7227 6.71484C30.6966 6.46094 30.651 6.24609 30.5859 6.07031C30.5273 5.88802 30.4492 5.74805 30.3516 5.65039C30.2604 5.54622 30.153 5.49414 30.0293 5.49414C29.8991 5.49414 29.7852 5.57227 29.6875 5.72852C29.5898 5.88477 29.5052 6.0931 29.4336 6.35352C29.362 6.61393 29.3001 6.91341 29.248 7.25195C29.2025 7.59049 29.1634 7.94531 29.1309 8.31641C29.0983 8.68099 29.0723 9.04883 29.0527 9.41992C29.0332 9.78451 29.0169 10.1296 29.0039 10.4551C28.9974 10.7741 28.9909 11.0573 28.9844 11.3047C28.9844 11.5521 28.9844 11.7376 28.9844 11.8613C28.9779 12.1217 28.9714 12.3529 28.9648 12.5547C28.9648 12.7565 28.9616 12.9551 28.9551 13.1504C28.9486 13.3457 28.9421 13.554 28.9355 13.7754C28.9355 13.9967 28.9355 14.2572 28.9355 14.5566ZM28.9062 20.6797C28.9062 21.0898 28.903 21.4707 28.8965 21.8223C28.8965 22.1803 28.8965 22.5059 28.8965 22.7988C28.8965 23.4043 28.8997 24.0033 28.9062 24.5957C28.9128 25.1882 28.9421 25.7188 28.9941 26.1875C29.0527 26.6628 29.1374 27.0436 29.248 27.3301C29.3652 27.623 29.5312 27.7695 29.7461 27.7695C29.9414 27.7695 30.1009 27.6816 30.2246 27.5059C30.3483 27.3301 30.4427 27.1217 30.5078 26.8809C30.5794 26.64 30.6283 26.3926 30.6543 26.1387C30.6803 25.8913 30.6934 25.6895 30.6934 25.5332C30.6934 25.1361 30.6543 24.7194 30.5762 24.2832C30.5046 23.847 30.3906 23.4141 30.2344 22.9844C30.0846 22.5612 29.8991 22.151 29.6777 21.7539C29.4564 21.3568 29.1992 20.9987 28.9062 20.6797ZM33.7695 17.9258C33.9062 18.1146 34.082 18.2676 34.2969 18.3848C34.5117 18.4954 34.7754 18.5508 35.0879 18.5508C35.4069 18.5508 35.6966 18.4759 35.957 18.3262C36.2174 18.1699 36.4551 17.9681 36.6699 17.7207C36.8848 17.4733 37.0768 17.1966 37.2461 16.8906C37.4154 16.5846 37.5684 16.2786 37.7051 15.9727C37.7376 15.901 37.7832 15.849 37.8418 15.8164C37.9004 15.7773 37.9655 15.7578 38.0371 15.7578C38.1478 15.7578 38.2357 15.7969 38.3008 15.875C38.3724 15.9531 38.4082 16.0378 38.4082 16.1289C38.4082 16.1615 38.4049 16.1908 38.3984 16.2168C38.3919 16.2363 38.3822 16.2591 38.3691 16.2852C37.9199 17.2747 37.4284 18.0202 36.8945 18.5215C36.3672 19.0228 35.7682 19.2799 35.0977 19.293C34.668 19.293 34.2969 19.2083 33.9844 19.0391C33.6719 18.8763 33.4147 18.6647 33.2129 18.4043C33.0111 18.1374 32.8613 17.8379 32.7637 17.5059C32.666 17.1738 32.6172 16.8418 32.6172 16.5098C32.6172 16.1777 32.6562 15.8717 32.7344 15.5918C32.819 15.3118 32.9362 15.0677 33.0859 14.8594C33.2422 14.651 33.4245 14.4883 33.6328 14.3711C33.8477 14.2539 34.082 14.1953 34.3359 14.1953C34.4857 14.1953 34.6322 14.2279 34.7754 14.293C34.9251 14.3516 35.0586 14.4395 35.1758 14.5566C35.293 14.6673 35.3874 14.804 35.459 14.9668C35.5306 15.1296 35.5664 15.3151 35.5664 15.5234C35.5664 15.7904 35.5208 16.041 35.4297 16.2754C35.3385 16.5098 35.2116 16.7279 35.0488 16.9297C34.8926 17.1315 34.7038 17.3171 34.4824 17.4863C34.2611 17.6556 34.0234 17.8021 33.7695 17.9258ZM33.4766 17.291C33.6784 17.2064 33.8607 17.099 34.0234 16.9688C34.1927 16.8385 34.3359 16.6953 34.4531 16.5391C34.5703 16.3828 34.6615 16.2201 34.7266 16.0508C34.7917 15.875 34.8242 15.6992 34.8242 15.5234C34.8242 15.3281 34.7754 15.1816 34.6777 15.084C34.5801 14.9798 34.4661 14.9277 34.3359 14.9277C34.1602 14.9277 34.0104 14.9766 33.8867 15.0742C33.763 15.1719 33.6621 15.2988 33.584 15.4551C33.5059 15.6113 33.4473 15.7871 33.4082 15.9824C33.3757 16.1712 33.3594 16.36 33.3594 16.5488C33.3594 16.666 33.3691 16.7897 33.3887 16.9199C33.4147 17.0501 33.444 17.1738 33.4766 17.291ZM38.8867 17.9258C39.0234 18.1146 39.1992 18.2676 39.4141 18.3848C39.6289 18.4954 39.8926 18.5508 40.2051 18.5508C40.5241 18.5508 40.8138 18.4759 41.0742 18.3262C41.3346 18.1699 41.5723 17.9681 41.7871 17.7207C42.002 17.4733 42.194 17.1966 42.3633 16.8906C42.5326 16.5846 42.6855 16.2786 42.8223 15.9727C42.8548 15.901 42.9004 15.849 42.959 15.8164C43.0176 15.7773 43.0827 15.7578 43.1543 15.7578C43.265 15.7578 43.3529 15.7969 43.418 15.875C43.4896 15.9531 43.5254 16.0378 43.5254 16.1289C43.5254 16.1615 43.5221 16.1908 43.5156 16.2168C43.5091 16.2363 43.4993 16.2591 43.4863 16.2852C43.0371 17.2747 42.5456 18.0202 42.0117 18.5215C41.4844 19.0228 40.8854 19.2799 40.2148 19.293C39.7852 19.293 39.4141 19.2083 39.1016 19.0391C38.7891 18.8763 38.5319 18.6647 38.3301 18.4043C38.1283 18.1374 37.9785 17.8379 37.8809 17.5059C37.7832 17.1738 37.7344 16.8418 37.7344 16.5098C37.7344 16.1777 37.7734 15.8717 37.8516 15.5918C37.9362 15.3118 38.0534 15.0677 38.2031 14.8594C38.3594 14.651 38.5417 14.4883 38.75 14.3711C38.9648 14.2539 39.1992 14.1953 39.4531 14.1953C39.6029 14.1953 39.7493 14.2279 39.8926 14.293C40.0423 14.3516 40.1758 14.4395 40.293 14.5566C40.4102 14.6673 40.5046 14.804 40.5762 14.9668C40.6478 15.1296 40.6836 15.3151 40.6836 15.5234C40.6836 15.7904 40.638 16.041 40.5469 16.2754C40.4557 16.5098 40.3288 16.7279 40.166 16.9297C40.0098 17.1315 39.821 17.3171 39.5996 17.4863C39.3783 17.6556 39.1406 17.8021 38.8867 17.9258ZM38.5938 17.291C38.7956 17.2064 38.9779 17.099 39.1406 16.9688C39.3099 16.8385 39.4531 16.6953 39.5703 16.5391C39.6875 16.3828 39.7786 16.2201 39.8438 16.0508C39.9089 15.875 39.9414 15.6992 39.9414 15.5234C39.9414 15.3281 39.8926 15.1816 39.7949 15.084C39.6973 14.9798 39.5833 14.9277 39.4531 14.9277C39.2773 14.9277 39.1276 14.9766 39.0039 15.0742C38.8802 15.1719 38.7793 15.2988 38.7012 15.4551C38.623 15.6113 38.5645 15.7871 38.5254 15.9824C38.4928 16.1712 38.4766 16.36 38.4766 16.5488C38.4766 16.666 38.4863 16.7897 38.5059 16.9199C38.5319 17.0501 38.5612 17.1738 38.5938 17.291ZM64.5703 8.74609C64.5508 8.83724 64.5085 8.90885 64.4434 8.96094C64.3783 9.01302 64.3066 9.03906 64.2285 9.03906C64.1113 9.03906 64.0169 9.00326 63.9453 8.93164C63.8737 8.85352 63.8379 8.76562 63.8379 8.66797C63.8379 8.57031 63.8477 8.47591 63.8672 8.38477C63.8867 8.28711 63.8965 8.19271 63.8965 8.10156C63.8965 7.6263 63.75 7.19987 63.457 6.82227C63.1641 6.44466 62.7474 6.12891 62.207 5.875C61.6732 5.61458 61.0221 5.41602 60.2539 5.2793C59.4857 5.14258 58.6296 5.07422 57.6855 5.07422C56.9629 5.07422 56.2337 5.12305 55.498 5.2207C54.7689 5.31185 54.0658 5.44857 53.3887 5.63086C52.7181 5.80664 52.0898 6.03125 51.5039 6.30469C50.918 6.57161 50.4069 6.88411 49.9707 7.24219C49.541 7.59375 49.2025 7.98763 48.9551 8.42383C48.7077 8.85352 48.584 9.32552 48.584 9.83984C48.584 10.237 48.6686 10.5885 48.8379 10.8945C49.0137 11.194 49.2513 11.4577 49.5508 11.6855C49.8503 11.9069 50.2018 12.099 50.6055 12.2617C51.0156 12.418 51.4583 12.5514 51.9336 12.6621C52.4089 12.7663 52.9036 12.8542 53.418 12.9258C53.9323 12.9909 54.4499 13.0462 54.9707 13.0918L56.4746 13.2188C57.2233 13.2839 57.8939 13.3522 58.4863 13.4238C59.0788 13.4954 59.5996 13.5866 60.0488 13.6973C60.7975 13.8861 61.3509 14.1562 61.709 14.5078C62.0671 14.8594 62.2461 15.3281 62.2461 15.9141C62.2461 16.4805 62.0898 16.9785 61.7773 17.4082C61.4648 17.8379 61.0384 18.1992 60.498 18.4922C59.9577 18.7852 59.3262 19.0065 58.6035 19.1562C57.8809 19.306 57.1061 19.3809 56.2793 19.3809C55.3809 19.3809 54.5898 19.319 53.9062 19.1953C53.2292 19.0781 52.6595 18.9479 52.1973 18.8047C51.7415 18.6549 51.3932 18.5182 51.1523 18.3945C50.9115 18.2708 50.7812 18.2025 50.7617 18.1895C50.6445 18.1243 50.5859 18.0202 50.5859 17.877C50.5859 17.7663 50.625 17.6784 50.7031 17.6133C50.7812 17.5417 50.8659 17.5059 50.957 17.5059C51.0286 17.5059 51.0938 17.5254 51.1523 17.5645C51.1589 17.5645 51.2695 17.623 51.4844 17.7402C51.7057 17.8509 52.0312 17.9746 52.4609 18.1113C52.8971 18.248 53.4342 18.3717 54.0723 18.4824C54.7103 18.5931 55.4525 18.6484 56.2988 18.6484C57.1387 18.6484 57.8809 18.5801 58.5254 18.4434C59.1699 18.3066 59.7103 18.1178 60.1465 17.877C60.5892 17.6296 60.9212 17.3431 61.1426 17.0176C61.3704 16.6855 61.4844 16.3275 61.4844 15.9434C61.4844 15.7155 61.4421 15.5202 61.3574 15.3574C61.2793 15.1882 61.1686 15.0449 61.0254 14.9277C60.8822 14.804 60.7096 14.6999 60.5078 14.6152C60.3125 14.5306 60.0977 14.459 59.8633 14.4004C59.6159 14.3353 59.349 14.2799 59.0625 14.2344C58.7826 14.1888 58.4928 14.1497 58.1934 14.1172C57.8939 14.0846 57.5911 14.0553 57.2852 14.0293C56.9857 14.0033 56.6895 13.9772 56.3965 13.9512L54.8926 13.8242C53.7077 13.7266 52.6725 13.5768 51.7871 13.375C50.9082 13.1667 50.1758 12.903 49.5898 12.584C49.0039 12.2585 48.5645 11.8711 48.2715 11.4219C47.9785 10.9727 47.832 10.4486 47.832 9.84961C47.832 9.23763 47.9688 8.67773 48.2422 8.16992C48.5221 7.6556 48.8997 7.19336 49.375 6.7832C49.8568 6.37305 50.4167 6.01823 51.0547 5.71875C51.6992 5.41276 52.3861 5.15885 53.1152 4.95703C53.8444 4.75521 54.5996 4.60547 55.3809 4.50781C56.1621 4.40365 56.9303 4.35156 57.6855 4.35156C58.6296 4.35156 59.4499 4.41016 60.1465 4.52734C60.8496 4.63802 61.4486 4.78451 61.9434 4.9668C62.4447 5.14258 62.8548 5.3444 63.1738 5.57227C63.4928 5.80013 63.75 6.02474 63.9453 6.24609C64.4076 6.78646 64.6387 7.40169 64.6387 8.0918C64.6387 8.31966 64.6159 8.53776 64.5703 8.74609ZM65.7324 18.1699C65.8366 17.9486 65.957 17.7109 66.0938 17.457C66.2305 17.1966 66.377 16.9329 66.5332 16.666C66.6895 16.3926 66.8555 16.1224 67.0312 15.8555C67.207 15.5885 67.3893 15.3379 67.5781 15.1035C67.7669 14.8757 67.9557 14.7129 68.1445 14.6152C68.3398 14.5111 68.5221 14.459 68.6914 14.459C68.8607 14.459 69.0072 14.4948 69.1309 14.5664C69.2611 14.6315 69.3652 14.7227 69.4434 14.8398C69.528 14.957 69.5898 15.0938 69.6289 15.25C69.6745 15.4062 69.6973 15.5755 69.6973 15.7578C69.6973 15.9076 69.681 16.1094 69.6484 16.3633C69.6224 16.6107 69.6094 16.8711 69.6094 17.1445C69.6094 17.3008 69.6159 17.457 69.6289 17.6133C69.6484 17.763 69.6777 17.8997 69.7168 18.0234C69.7624 18.1406 69.8275 18.2383 69.9121 18.3164C69.9967 18.388 70.1074 18.4238 70.2441 18.4238C70.4004 18.4238 70.5566 18.3815 70.7129 18.2969C70.8691 18.2057 71.0221 18.0885 71.1719 17.9453C71.3216 17.7956 71.4648 17.6328 71.6016 17.457C71.7383 17.2747 71.862 17.0957 71.9727 16.9199C72.0833 16.7376 72.181 16.5651 72.2656 16.4023C72.3503 16.2331 72.4186 16.0931 72.4707 15.9824C72.5358 15.8327 72.6497 15.7578 72.8125 15.7578C72.9232 15.7578 73.0111 15.7969 73.0762 15.875C73.1413 15.9531 73.1738 16.0378 73.1738 16.1289C73.1738 16.181 73.1641 16.2298 73.1445 16.2754C73.1185 16.3275 73.0664 16.4349 72.9883 16.5977C72.9167 16.7604 72.8158 16.9492 72.6855 17.1641C72.5618 17.3789 72.4154 17.6035 72.2461 17.8379C72.0768 18.0723 71.888 18.2904 71.6797 18.4922C71.4779 18.6875 71.2565 18.8503 71.0156 18.9805C70.7812 19.1042 70.5339 19.166 70.2734 19.166C69.974 19.166 69.7331 19.1042 69.5508 18.9805C69.3685 18.8503 69.2253 18.6875 69.1211 18.4922C69.0234 18.2969 68.9551 18.0788 68.916 17.8379C68.8835 17.597 68.8672 17.3626 68.8672 17.1348C68.8672 17.0176 68.8704 16.8939 68.877 16.7637C68.89 16.627 68.903 16.4935 68.916 16.3633C68.929 16.2331 68.9388 16.1126 68.9453 16.002C68.9583 15.8848 68.9648 15.7871 68.9648 15.709C68.9648 15.5072 68.9355 15.3704 68.877 15.2988C68.8249 15.2272 68.763 15.1914 68.6914 15.1914C68.5872 15.1914 68.4668 15.2533 68.3301 15.377C68.1999 15.4941 68.0599 15.6504 67.9102 15.8457C67.7669 16.041 67.6204 16.2624 67.4707 16.5098C67.3275 16.7507 67.1875 16.9915 67.0508 17.2324C66.9141 17.4733 66.7904 17.7044 66.6797 17.9258C66.569 18.1406 66.4779 18.3197 66.4062 18.4629C66.2695 18.7363 66.1296 18.9186 65.9863 19.0098C65.8496 19.1074 65.7259 19.1562 65.6152 19.1562C65.4134 19.1562 65.2572 19.0781 65.1465 18.9219C65.0423 18.7591 64.9902 18.5638 64.9902 18.3359V17.7207C64.9902 16.4902 64.9902 15.3184 64.9902 14.2051C64.9967 13.0853 65.013 12.0469 65.0391 11.0898C65.0716 10.1263 65.1204 9.25716 65.1855 8.48242C65.2572 7.70117 65.3613 7.03711 65.498 6.49023C65.6348 5.93685 65.8073 5.51042 66.0156 5.21094C66.2305 4.91146 66.4974 4.76172 66.8164 4.76172C67.0898 4.76172 67.321 4.83659 67.5098 4.98633C67.6986 5.13607 67.8516 5.34115 67.9688 5.60156C68.0859 5.85547 68.1706 6.15495 68.2227 6.5C68.2747 6.83854 68.3008 7.19661 68.3008 7.57422C68.3008 8.34245 68.2292 9.09766 68.0859 9.83984C67.9492 10.5755 67.7637 11.2949 67.5293 11.998C67.2949 12.7012 67.0215 13.388 66.709 14.0586C66.3965 14.7227 66.0677 15.3704 65.7227 16.002C65.7227 16.1191 65.7227 16.2591 65.7227 16.4219C65.7227 16.5846 65.7227 16.7474 65.7227 16.9102C65.7227 17.0729 65.7227 17.2259 65.7227 17.3691C65.7227 17.5124 65.7227 17.6263 65.7227 17.7109L65.7324 18.1699ZM65.7324 14.5664C66.0059 13.9674 66.2533 13.3848 66.4746 12.8184C66.7025 12.2454 66.8945 11.6758 67.0508 11.1094C67.2135 10.543 67.3405 9.97005 67.4316 9.39062C67.5228 8.80469 67.5684 8.19596 67.5684 7.56445C67.5684 7.46029 67.5618 7.29427 67.5488 7.06641C67.5423 6.83854 67.513 6.60742 67.4609 6.37305C67.4154 6.13867 67.3405 5.93359 67.2363 5.75781C67.1387 5.58203 66.9987 5.49414 66.8164 5.49414C66.6732 5.49414 66.5495 5.5918 66.4453 5.78711C66.3411 5.97591 66.25 6.23633 66.1719 6.56836C66.0938 6.89388 66.0286 7.27474 65.9766 7.71094C65.9245 8.14714 65.8822 8.60938 65.8496 9.09766C65.8171 9.58594 65.791 10.0872 65.7715 10.6016C65.7585 11.1159 65.7487 11.6172 65.7422 12.1055C65.7357 12.5872 65.7324 13.0397 65.7324 13.4629C65.7324 13.8861 65.7324 14.2539 65.7324 14.5664ZM76.9824 17.9258C76.8197 17.9258 76.6764 17.9128 76.5527 17.8867C76.4551 18.082 76.3379 18.2643 76.2012 18.4336C76.0645 18.5964 75.9049 18.7396 75.7227 18.8633C75.5469 18.987 75.3483 19.0846 75.127 19.1562C74.9056 19.2279 74.6647 19.2637 74.4043 19.2637C74.0983 19.2637 73.8184 19.2083 73.5645 19.0977C73.3105 18.9935 73.0892 18.847 72.9004 18.6582C72.7116 18.4629 72.5651 18.2318 72.4609 17.9648C72.3568 17.6914 72.3047 17.3919 72.3047 17.0664C72.3047 16.6497 72.3796 16.2884 72.5293 15.9824C72.679 15.6699 72.8516 15.4128 73.0469 15.2109C73.2422 15.0026 73.4375 14.8496 73.6328 14.752C73.8281 14.6478 73.9746 14.5957 74.0723 14.5957C74.1829 14.5957 74.2643 14.625 74.3164 14.6836C74.375 14.7422 74.4043 14.8203 74.4043 14.918C74.4043 15.0286 74.3685 15.1133 74.2969 15.1719C74.2318 15.224 74.1471 15.276 74.043 15.3281C73.9388 15.3802 73.8281 15.4551 73.7109 15.5527C73.5938 15.6439 73.4831 15.7611 73.3789 15.9043C73.2812 16.0475 73.1999 16.2168 73.1348 16.4121C73.0697 16.6074 73.0371 16.8255 73.0371 17.0664C73.0371 17.2812 73.0697 17.4831 73.1348 17.6719C73.1999 17.8542 73.2943 18.0137 73.418 18.1504C73.5417 18.2806 73.6882 18.3848 73.8574 18.4629C74.0267 18.5345 74.2155 18.5703 74.4238 18.5703C74.7949 18.5703 75.1009 18.4857 75.3418 18.3164C75.5892 18.1406 75.778 17.9193 75.9082 17.6523C75.5241 17.4505 75.2083 17.1641 74.9609 16.793C74.7135 16.4219 74.5898 16.0052 74.5898 15.543C74.5898 15.1719 74.6777 14.8691 74.8535 14.6348C75.0358 14.4004 75.2734 14.2832 75.5664 14.2832C75.7422 14.2832 75.9082 14.3255 76.0645 14.4102C76.2207 14.4948 76.3574 14.6283 76.4746 14.8105C76.5983 14.9928 76.696 15.2272 76.7676 15.5137C76.8392 15.8001 76.875 16.1419 76.875 16.5391C76.875 16.7474 76.849 16.9655 76.7969 17.1934C76.8359 17.1999 76.875 17.2031 76.9141 17.2031C76.9531 17.2031 76.9954 17.2031 77.041 17.2031C77.2624 17.2031 77.4609 17.1771 77.6367 17.125C77.8125 17.0729 77.972 16.9948 78.1152 16.8906C78.2585 16.7865 78.3854 16.653 78.4961 16.4902C78.6133 16.3275 78.724 16.1387 78.8281 15.9238C78.8477 15.8848 78.89 15.849 78.9551 15.8164C79.0202 15.7773 79.0853 15.7578 79.1504 15.7578C79.235 15.7578 79.3132 15.7936 79.3848 15.8652C79.4629 15.9303 79.502 16.0182 79.502 16.1289C79.502 16.181 79.4889 16.2396 79.4629 16.3047C79.4368 16.3633 79.4108 16.4186 79.3848 16.4707C79.2741 16.666 79.1439 16.8548 78.9941 17.0371C78.8509 17.2129 78.6784 17.3691 78.4766 17.5059C78.2812 17.6361 78.0599 17.7402 77.8125 17.8184C77.5651 17.8965 77.2884 17.9323 76.9824 17.9258ZM75.3125 15.4648C75.3125 15.5885 75.3288 15.7188 75.3613 15.8555C75.3939 15.9922 75.4427 16.1289 75.5078 16.2656C75.5794 16.3958 75.6641 16.5228 75.7617 16.6465C75.8659 16.7637 75.9863 16.8646 76.123 16.9492C76.1426 16.8125 76.1523 16.679 76.1523 16.5488C76.1523 16.373 76.1393 16.194 76.1133 16.0117C76.0872 15.8294 76.0482 15.6634 75.9961 15.5137C75.9505 15.3574 75.8919 15.2337 75.8203 15.1426C75.7487 15.0449 75.6641 14.9961 75.5664 14.9961C75.5273 14.9961 75.4753 15.0254 75.4102 15.084C75.3451 15.1426 75.3125 15.2695 75.3125 15.4648ZM83.8184 16.2754C83.8184 16.8743 83.7109 17.3854 83.4961 17.8086C83.2812 18.2318 83.0176 18.554 82.7051 18.7754H82.7441C83.1283 18.7754 83.4766 18.6908 83.7891 18.5215C84.1081 18.3457 84.3945 18.1243 84.6484 17.8574C84.9023 17.584 85.1302 17.2812 85.332 16.9492C85.5339 16.6172 85.7129 16.2949 85.8691 15.9824C85.9017 15.9108 85.9473 15.8555 86.0059 15.8164C86.071 15.7773 86.1393 15.7578 86.2109 15.7578C86.3216 15.7578 86.4095 15.7969 86.4746 15.875C86.5397 15.9531 86.5723 16.0378 86.5723 16.1289C86.5723 16.181 86.5625 16.2298 86.543 16.2754C86.3737 16.653 86.1719 17.0339 85.9375 17.418C85.7031 17.7956 85.4297 18.1374 85.1172 18.4434C84.8047 18.7493 84.4531 18.9967 84.0625 19.1855C83.6719 19.3809 83.2389 19.4785 82.7637 19.4785C82.4186 19.4785 82.0833 19.4232 81.7578 19.3125C81.4323 19.2083 81.1458 19.0423 80.8984 18.8145C80.8073 18.7428 80.7292 18.668 80.6641 18.5898C80.599 18.5052 80.5469 18.4271 80.5078 18.3555C80.4948 18.3424 80.4883 18.3294 80.4883 18.3164C80.4492 18.2578 80.4297 18.196 80.4297 18.1309C80.4297 18.0462 80.459 17.9681 80.5176 17.8965C80.5241 17.8835 80.5306 17.877 80.5371 17.877C80.5436 17.8704 80.5501 17.8639 80.5566 17.8574C80.6217 17.7988 80.6934 17.7663 80.7715 17.7598H80.8008C80.8333 17.7598 80.8561 17.763 80.8691 17.7695C80.8757 17.7695 80.8789 17.7728 80.8789 17.7793C80.8854 17.7793 80.8919 17.7793 80.8984 17.7793C80.918 17.7793 80.9408 17.7858 80.9668 17.7988C80.9733 17.8053 80.9798 17.8086 80.9863 17.8086C81.0449 17.8477 81.0938 17.8965 81.1328 17.9551C81.1784 18.0332 81.2305 18.1048 81.2891 18.1699C81.3411 18.222 81.403 18.2708 81.4746 18.3164C81.5462 18.3555 81.6276 18.375 81.7188 18.375C81.8815 18.375 82.0443 18.3262 82.207 18.2285C82.3698 18.1309 82.5163 17.9909 82.6465 17.8086C82.7767 17.6263 82.8809 17.4049 82.959 17.1445C83.0436 16.8841 83.0859 16.5944 83.0859 16.2754C83.0859 16.041 83.0599 15.8424 83.0078 15.6797C82.9622 15.5104 82.9004 15.3737 82.8223 15.2695C82.7507 15.1654 82.6725 15.0905 82.5879 15.0449C82.5033 14.9928 82.4219 14.9668 82.3438 14.9668C82.168 14.9668 81.9889 15.0579 81.8066 15.2402C81.6309 15.4225 81.4551 15.6536 81.2793 15.9336C81.1035 16.2135 80.9277 16.5228 80.752 16.8613C80.5827 17.1999 80.4102 17.5286 80.2344 17.8477C80.2214 18.9023 80.2018 19.9082 80.1758 20.8652C80.1562 21.8223 80.1172 22.7109 80.0586 23.5312C80.0065 24.3516 79.9316 25.0938 79.834 25.7578C79.7363 26.4219 79.6029 26.9883 79.4336 27.457C79.2643 27.9323 79.056 28.2969 78.8086 28.5508C78.5612 28.8047 78.2585 28.9316 77.9004 28.9316C77.7897 28.9316 77.6628 28.9089 77.5195 28.8633C77.3763 28.8177 77.2428 28.7233 77.1191 28.5801C76.9954 28.4434 76.8913 28.2448 76.8066 27.9844C76.722 27.724 76.6797 27.3757 76.6797 26.9395C76.6797 26.3861 76.748 25.7448 76.8848 25.0156C77.0215 24.2865 77.2168 23.5117 77.4707 22.6914C77.7181 21.8776 78.0143 21.041 78.3594 20.1816C78.7044 19.3223 79.0853 18.4857 79.502 17.6719C79.502 17.444 79.502 17.2194 79.502 16.998C79.5085 16.7767 79.5117 16.5618 79.5117 16.3535C79.4271 16.4512 79.3262 16.5 79.209 16.5C79.0983 16.5 79.0104 16.4609 78.9453 16.3828C78.8802 16.3047 78.8477 16.2201 78.8477 16.1289C78.8477 16.0833 78.8574 16.0345 78.877 15.9824C79.0332 15.6243 79.1536 15.2858 79.2383 14.9668C79.3229 14.6413 79.3848 14.3581 79.4238 14.1172C79.4694 13.8698 79.4954 13.6745 79.502 13.5312C79.5085 13.388 79.5117 13.3132 79.5117 13.3066C79.5117 13.209 79.5475 13.1243 79.6191 13.0527C79.6908 12.9811 79.7786 12.9453 79.8828 12.9453C79.9805 12.9453 80.0651 12.9811 80.1367 13.0527C80.2083 13.1178 80.2441 13.2025 80.2441 13.3066V16.3047C80.3939 16.0508 80.5436 15.8001 80.6934 15.5527C80.8431 15.3053 80.9993 15.084 81.1621 14.8887C81.3314 14.6934 81.5104 14.5371 81.6992 14.4199C81.8945 14.2962 82.1094 14.2344 82.3438 14.2344C82.5651 14.2344 82.7669 14.2865 82.9492 14.3906C83.1315 14.4948 83.2878 14.638 83.418 14.8203C83.5482 15.0026 83.6458 15.2207 83.7109 15.4746C83.7826 15.722 83.8184 15.9889 83.8184 16.2754ZM79.4824 19.4102C79.1634 20.1263 78.8737 20.8457 78.6133 21.5684C78.3594 22.291 78.1445 22.9876 77.9688 23.6582C77.7865 24.3288 77.6465 24.957 77.5488 25.543C77.4512 26.1289 77.4023 26.6432 77.4023 27.0859C77.4023 27.1966 77.4089 27.3171 77.4219 27.4473C77.4349 27.5775 77.4609 27.6979 77.5 27.8086C77.5391 27.9193 77.5944 28.0104 77.666 28.082C77.7376 28.1602 77.832 28.1992 77.9492 28.1992C78.1641 28.1992 78.3496 28.0625 78.5059 27.7891C78.6621 27.5221 78.7923 27.1576 78.8965 26.6953C79.0072 26.2396 79.0983 25.7122 79.1699 25.1133C79.2415 24.5208 79.2969 23.8991 79.3359 23.248C79.3815 22.597 79.4141 21.9395 79.4336 21.2754C79.4531 20.6178 79.4694 19.9961 79.4824 19.4102Z" fill="white"/>
</svg>
