<svg width="86" height="25" viewBox="0 0 86 25" fill="none" xmlns="http://www.w3.org/2000/svg">
<path d="M15.7617 11.0254C15.4557 11.5202 15.0423 12.0117 14.5215 12.5C14.0007 12.9818 13.4049 13.418 12.7344 13.8086C12.0703 14.1927 11.3444 14.502 10.5566 14.7363C9.76888 14.9772 8.95508 15.0977 8.11523 15.0977C7.45768 15.0977 6.80013 15.0391 6.14258 14.9219C5.49154 14.8047 4.86328 14.6257 4.25781 14.3848C3.65885 14.1439 3.09896 13.8411 2.57812 13.4766C2.0638 13.1055 1.61458 12.6693 1.23047 12.168C0.846354 11.6667 0.54362 11.097 0.322266 10.459C0.107422 9.82096 0 9.11133 0 8.33008C0 7.56836 0.110677 6.8457 0.332031 6.16211C0.559896 5.47852 0.875651 4.84701 1.2793 4.26758C1.68294 3.68164 2.16146 3.1543 2.71484 2.68555C3.26823 2.2168 3.8737 1.81966 4.53125 1.49414C5.1888 1.16211 5.88216 0.908203 6.61133 0.732422C7.34049 0.556641 8.08594 0.46875 8.84766 0.46875C9.6875 0.46875 10.4753 0.569661 11.2109 0.771484C11.9531 0.966797 12.6009 1.24674 13.1543 1.61133C13.7077 1.9694 14.1439 2.40234 14.4629 2.91016C14.7884 3.41146 14.9512 3.97135 14.9512 4.58984C14.9512 5.16276 14.8177 5.70964 14.5508 6.23047C14.2839 6.74479 13.916 7.19727 13.4473 7.58789C12.985 7.97852 12.4414 8.28776 11.8164 8.51562C11.1979 8.74349 10.5371 8.85742 9.83398 8.85742C9.26758 8.85742 8.76628 8.78906 8.33008 8.65234C7.89388 8.50911 7.5293 8.3138 7.23633 8.06641C6.94336 7.81901 6.72201 7.5293 6.57227 7.19727C6.42253 6.86523 6.34766 6.50716 6.34766 6.12305C6.34766 5.80404 6.39648 5.51432 6.49414 5.25391C6.59831 4.98698 6.70898 4.75911 6.82617 4.57031C6.94987 4.38151 7.0638 4.23503 7.16797 4.13086C7.27865 4.02018 7.34049 3.95833 7.35352 3.94531C7.38607 3.91276 7.42188 3.89323 7.46094 3.88672C7.50651 3.8737 7.54883 3.86719 7.58789 3.86719C7.69206 3.86719 7.77995 3.89974 7.85156 3.96484C7.92318 4.02995 7.95898 4.11458 7.95898 4.21875C7.95898 4.33594 7.91667 4.43359 7.83203 4.51172C7.81901 4.51823 7.77344 4.5638 7.69531 4.64844C7.61719 4.72656 7.53255 4.83724 7.44141 4.98047C7.35026 5.11719 7.26562 5.2832 7.1875 5.47852C7.11589 5.67383 7.08008 5.88867 7.08008 6.12305C7.08008 6.49414 7.16146 6.80664 7.32422 7.06055C7.49349 7.31445 7.71159 7.52279 7.97852 7.68555C8.24544 7.8418 8.54167 7.95573 8.86719 8.02734C9.19271 8.09245 9.51823 8.125 9.84375 8.125C10.4492 8.125 11.0156 8.02734 11.543 7.83203C12.0768 7.63672 12.5423 7.3763 12.9395 7.05078C13.3366 6.72526 13.6491 6.35091 13.877 5.92773C14.1048 5.50456 14.2188 5.06185 14.2188 4.59961C14.2188 4.0918 14.0755 3.62956 13.7891 3.21289C13.5026 2.78971 13.1152 2.43164 12.627 2.13867C12.1387 1.83919 11.5658 1.60807 10.9082 1.44531C10.2572 1.28255 9.56055 1.20117 8.81836 1.20117C8.25846 1.20117 7.66927 1.26953 7.05078 1.40625C6.4388 1.53646 5.83333 1.73503 5.23438 2.00195C4.63542 2.26888 4.0625 2.60091 3.51562 2.99805C2.97526 3.39518 2.5 3.86068 2.08984 4.39453C1.67969 4.92188 1.35091 5.51432 1.10352 6.17188C0.86263 6.82943 0.742188 7.54883 0.742188 8.33008C0.742188 9.03971 0.839844 9.68099 1.03516 10.2539C1.23698 10.8268 1.51367 11.3379 1.86523 11.7871C2.2168 12.2298 2.62695 12.6139 3.0957 12.9395C3.57096 13.265 4.07878 13.5352 4.61914 13.75C5.16602 13.9583 5.73568 14.1146 6.32812 14.2188C6.92057 14.3164 7.50977 14.3652 8.0957 14.3652C8.87695 14.3652 9.62891 14.2578 10.3516 14.043C11.0742 13.8216 11.7415 13.5352 12.3535 13.1836C12.972 12.8255 13.5189 12.4251 13.9941 11.9824C14.4694 11.5397 14.847 11.0938 15.127 10.6445C15.1595 10.5859 15.2051 10.5436 15.2637 10.5176C15.3223 10.485 15.3841 10.4688 15.4492 10.4688C15.5599 10.4688 15.6478 10.5078 15.7129 10.5859C15.778 10.6576 15.8105 10.7389 15.8105 10.8301C15.8105 10.8626 15.8073 10.8952 15.8008 10.9277C15.7943 10.9603 15.7812 10.9928 15.7617 11.0254ZM21.2793 13.5742C21.1165 13.5742 20.9733 13.5612 20.8496 13.5352C20.752 13.7305 20.6348 13.9128 20.498 14.082C20.3613 14.2448 20.2018 14.388 20.0195 14.5117C19.8438 14.6354 19.6452 14.7331 19.4238 14.8047C19.2025 14.8763 18.9616 14.9121 18.7012 14.9121C18.3952 14.9121 18.1152 14.8568 17.8613 14.7461C17.6074 14.6419 17.3861 14.4954 17.1973 14.3066C17.0085 14.1113 16.862 13.8802 16.7578 13.6133C16.6536 13.3398 16.6016 13.0404 16.6016 12.7148C16.6016 12.2982 16.6764 11.9368 16.8262 11.6309C16.9759 11.3184 17.1484 11.0612 17.3438 10.8594C17.5391 10.651 17.7344 10.498 17.9297 10.4004C18.125 10.2962 18.2715 10.2441 18.3691 10.2441C18.4798 10.2441 18.5612 10.2734 18.6133 10.332C18.6719 10.3906 18.7012 10.4688 18.7012 10.5664C18.7012 10.6771 18.6654 10.7617 18.5938 10.8203C18.5286 10.8724 18.444 10.9245 18.3398 10.9766C18.2357 11.0286 18.125 11.1035 18.0078 11.2012C17.8906 11.2923 17.7799 11.4095 17.6758 11.5527C17.5781 11.696 17.4967 11.8652 17.4316 12.0605C17.3665 12.2559 17.334 12.474 17.334 12.7148C17.334 12.9297 17.3665 13.1315 17.4316 13.3203C17.4967 13.5026 17.5911 13.6621 17.7148 13.7988C17.8385 13.929 17.985 14.0332 18.1543 14.1113C18.3236 14.1829 18.5124 14.2188 18.7207 14.2188C19.0918 14.2188 19.3978 14.1341 19.6387 13.9648C19.8861 13.7891 20.0749 13.5677 20.2051 13.3008C19.821 13.099 19.5052 12.8125 19.2578 12.4414C19.0104 12.0703 18.8867 11.6536 18.8867 11.1914C18.8867 10.8203 18.9746 10.5176 19.1504 10.2832C19.3327 10.0488 19.5703 9.93164 19.8633 9.93164C20.0391 9.93164 20.2051 9.97396 20.3613 10.0586C20.5176 10.1432 20.6543 10.2767 20.7715 10.459C20.8952 10.6413 20.9928 10.8757 21.0645 11.1621C21.1361 11.4486 21.1719 11.7904 21.1719 12.1875C21.1719 12.3958 21.1458 12.6139 21.0938 12.8418C21.1328 12.8483 21.1719 12.8516 21.2109 12.8516C21.25 12.8516 21.2923 12.8516 21.3379 12.8516C21.5592 12.8516 21.7578 12.8255 21.9336 12.7734C22.1094 12.7214 22.2689 12.6432 22.4121 12.5391C22.5553 12.4349 22.6823 12.3014 22.793 12.1387C22.9102 11.9759 23.0208 11.7871 23.125 11.5723C23.1445 11.5332 23.1868 11.4974 23.252 11.4648C23.3171 11.4258 23.3822 11.4062 23.4473 11.4062C23.5319 11.4062 23.61 11.4421 23.6816 11.5137C23.7598 11.5788 23.7988 11.6667 23.7988 11.7773C23.7988 11.8294 23.7858 11.888 23.7598 11.9531C23.7337 12.0117 23.7077 12.0671 23.6816 12.1191C23.571 12.3145 23.4408 12.5033 23.291 12.6855C23.1478 12.8613 22.9753 13.0176 22.7734 13.1543C22.5781 13.2845 22.3568 13.3887 22.1094 13.4668C21.862 13.5449 21.5853 13.5807 21.2793 13.5742ZM19.6094 11.1133C19.6094 11.237 19.6257 11.3672 19.6582 11.5039C19.6908 11.6406 19.7396 11.7773 19.8047 11.9141C19.8763 12.0443 19.9609 12.1712 20.0586 12.2949C20.1628 12.4121 20.2832 12.513 20.4199 12.5977C20.4395 12.4609 20.4492 12.3275 20.4492 12.1973C20.4492 12.0215 20.4362 11.8424 20.4102 11.6602C20.3841 11.4779 20.3451 11.3118 20.293 11.1621C20.2474 11.0059 20.1888 10.8822 20.1172 10.791C20.0456 10.6934 19.9609 10.6445 19.8633 10.6445C19.8242 10.6445 19.7721 10.6738 19.707 10.7324C19.6419 10.791 19.6094 10.918 19.6094 11.1133ZM23.8672 15.127C24.349 14.9121 24.7852 14.6647 25.1758 14.3848C25.5729 14.1048 25.9245 13.8118 26.2305 13.5059C26.543 13.1934 26.8066 12.8776 27.0215 12.5586C27.2428 12.2331 27.4186 11.9238 27.5488 11.6309C27.6074 11.4876 27.7181 11.416 27.8809 11.416C27.9915 11.416 28.0794 11.4551 28.1445 11.5332C28.2161 11.6048 28.252 11.6862 28.252 11.7773C28.252 11.8294 28.2422 11.8783 28.2227 11.9238C28.0794 12.2428 27.8971 12.5749 27.6758 12.9199C27.4544 13.2585 27.1842 13.5938 26.8652 13.9258C26.5527 14.2513 26.1849 14.5671 25.7617 14.873C25.3385 15.179 24.8535 15.459 24.3066 15.7129C24.6582 16.0775 24.9642 16.4811 25.2246 16.9238C25.485 17.373 25.6999 17.8385 25.8691 18.3203C26.0449 18.8021 26.1751 19.2871 26.2598 19.7754C26.3509 20.2702 26.3965 20.7422 26.3965 21.1914C26.3965 21.6016 26.3574 21.9857 26.2793 22.3438C26.2077 22.7083 26.097 23.0241 25.9473 23.291C25.804 23.5579 25.6283 23.7663 25.4199 23.916C25.2116 24.0723 24.974 24.1504 24.707 24.1504C24.3164 24.1504 24.0137 24.0039 23.7988 23.7109C23.584 23.4245 23.4245 23.0241 23.3203 22.5098C23.2227 22.002 23.1641 21.3997 23.1445 20.7031C23.1315 20.013 23.125 19.2611 23.125 18.4473C23.125 18.0436 23.125 17.5716 23.125 17.0312C23.125 16.4974 23.125 15.9212 23.125 15.3027C23.1315 14.6908 23.1348 14.0495 23.1348 13.3789C23.1413 12.7018 23.1478 12.0247 23.1543 11.3477C23.1608 10.6706 23.1673 10.0065 23.1738 9.35547C23.1803 8.69792 23.1901 8.07617 23.2031 7.49023C23.2227 6.37044 23.2617 5.37109 23.3203 4.49219C23.3789 3.61328 23.4733 2.87109 23.6035 2.26562C23.7337 1.66016 23.9095 1.20117 24.1309 0.888672C24.3587 0.569661 24.6452 0.410156 24.9902 0.410156C25.2637 0.410156 25.4948 0.488281 25.6836 0.644531C25.8724 0.794271 26.0254 0.999349 26.1426 1.25977C26.2598 1.51367 26.3444 1.81315 26.3965 2.1582C26.4486 2.50326 26.4746 2.86458 26.4746 3.24219C26.4746 4.03646 26.4062 4.80469 26.2695 5.54688C26.1328 6.28906 25.9473 7.00846 25.7129 7.70508C25.4785 8.40169 25.2018 9.08203 24.8828 9.74609C24.5703 10.4102 24.235 11.0645 23.877 11.709C23.877 11.9759 23.877 12.2656 23.877 12.5781C23.877 12.8841 23.877 13.1934 23.877 13.5059C23.877 13.8118 23.8737 14.1081 23.8672 14.3945C23.8672 14.6745 23.8672 14.9186 23.8672 15.127ZM23.8965 10.2051C24.1634 9.70378 24.4076 9.17643 24.6289 8.62305C24.8568 8.06315 25.0521 7.48698 25.2148 6.89453C25.3776 6.30208 25.5046 5.69661 25.5957 5.07812C25.6868 4.45964 25.7324 3.83789 25.7324 3.21289C25.7324 2.90039 25.7161 2.61719 25.6836 2.36328C25.6576 2.10938 25.612 1.89453 25.5469 1.71875C25.4883 1.53646 25.4102 1.39648 25.3125 1.29883C25.2214 1.19466 25.1139 1.14258 24.9902 1.14258C24.86 1.14258 24.7461 1.2207 24.6484 1.37695C24.5508 1.5332 24.4661 1.74154 24.3945 2.00195C24.3229 2.26237 24.2611 2.56185 24.209 2.90039C24.1634 3.23893 24.1243 3.59375 24.0918 3.96484C24.0592 4.32943 24.0332 4.69727 24.0137 5.06836C23.9941 5.43294 23.9779 5.77799 23.9648 6.10352C23.9583 6.42253 23.9518 6.70573 23.9453 6.95312C23.9453 7.20052 23.9453 7.38607 23.9453 7.50977C23.9388 7.77018 23.9323 8.0013 23.9258 8.20312C23.9258 8.40495 23.9225 8.60352 23.916 8.79883C23.9095 8.99414 23.903 9.20247 23.8965 9.42383C23.8965 9.64518 23.8965 9.9056 23.8965 10.2051ZM23.8672 16.3281C23.8672 16.7383 23.8639 17.1191 23.8574 17.4707C23.8574 17.8288 23.8574 18.1543 23.8574 18.4473C23.8574 19.0527 23.8607 19.6517 23.8672 20.2441C23.8737 20.8366 23.903 21.3672 23.9551 21.8359C24.0137 22.3112 24.0983 22.6921 24.209 22.9785C24.3262 23.2715 24.4922 23.418 24.707 23.418C24.9023 23.418 25.0618 23.3301 25.1855 23.1543C25.3092 22.9785 25.4036 22.7702 25.4688 22.5293C25.5404 22.2884 25.5892 22.041 25.6152 21.7871C25.6413 21.5397 25.6543 21.3379 25.6543 21.1816C25.6543 20.7845 25.6152 20.3678 25.5371 19.9316C25.4655 19.4954 25.3516 19.0625 25.1953 18.6328C25.0456 18.2096 24.86 17.7995 24.6387 17.4023C24.4173 17.0052 24.1602 16.6471 23.8672 16.3281ZM28.3203 15.127C28.8021 14.9121 29.2383 14.6647 29.6289 14.3848C30.026 14.1048 30.3776 13.8118 30.6836 13.5059C30.9961 13.1934 31.2598 12.8776 31.4746 12.5586C31.696 12.2331 31.8717 11.9238 32.002 11.6309C32.0605 11.4876 32.1712 11.416 32.334 11.416C32.4447 11.416 32.5326 11.4551 32.5977 11.5332C32.6693 11.6048 32.7051 11.6862 32.7051 11.7773C32.7051 11.8294 32.6953 11.8783 32.6758 11.9238C32.5326 12.2428 32.3503 12.5749 32.1289 12.9199C31.9076 13.2585 31.6374 13.5938 31.3184 13.9258C31.0059 14.2513 30.638 14.5671 30.2148 14.873C29.7917 15.179 29.3066 15.459 28.7598 15.7129C29.1113 16.0775 29.4173 16.4811 29.6777 16.9238C29.9382 17.373 30.153 17.8385 30.3223 18.3203C30.498 18.8021 30.6283 19.2871 30.7129 19.7754C30.804 20.2702 30.8496 20.7422 30.8496 21.1914C30.8496 21.6016 30.8105 21.9857 30.7324 22.3438C30.6608 22.7083 30.5501 23.0241 30.4004 23.291C30.2572 23.5579 30.0814 23.7663 29.873 23.916C29.6647 24.0723 29.4271 24.1504 29.1602 24.1504C28.7695 24.1504 28.4668 24.0039 28.252 23.7109C28.0371 23.4245 27.8776 23.0241 27.7734 22.5098C27.6758 22.002 27.6172 21.3997 27.5977 20.7031C27.5846 20.013 27.5781 19.2611 27.5781 18.4473C27.5781 18.0436 27.5781 17.5716 27.5781 17.0312C27.5781 16.4974 27.5781 15.9212 27.5781 15.3027C27.5846 14.6908 27.5879 14.0495 27.5879 13.3789C27.5944 12.7018 27.6009 12.0247 27.6074 11.3477C27.6139 10.6706 27.6204 10.0065 27.627 9.35547C27.6335 8.69792 27.6432 8.07617 27.6562 7.49023C27.6758 6.37044 27.7148 5.37109 27.7734 4.49219C27.832 3.61328 27.9264 2.87109 28.0566 2.26562C28.1868 1.66016 28.3626 1.20117 28.584 0.888672C28.8118 0.569661 29.0983 0.410156 29.4434 0.410156C29.7168 0.410156 29.9479 0.488281 30.1367 0.644531C30.3255 0.794271 30.4785 0.999349 30.5957 1.25977C30.7129 1.51367 30.7975 1.81315 30.8496 2.1582C30.9017 2.50326 30.9277 2.86458 30.9277 3.24219C30.9277 4.03646 30.8594 4.80469 30.7227 5.54688C30.5859 6.28906 30.4004 7.00846 30.166 7.70508C29.9316 8.40169 29.6549 9.08203 29.3359 9.74609C29.0234 10.4102 28.6882 11.0645 28.3301 11.709C28.3301 11.9759 28.3301 12.2656 28.3301 12.5781C28.3301 12.8841 28.3301 13.1934 28.3301 13.5059C28.3301 13.8118 28.3268 14.1081 28.3203 14.3945C28.3203 14.6745 28.3203 14.9186 28.3203 15.127ZM28.3496 10.2051C28.6165 9.70378 28.8607 9.17643 29.082 8.62305C29.3099 8.06315 29.5052 7.48698 29.668 6.89453C29.8307 6.30208 29.9577 5.69661 30.0488 5.07812C30.14 4.45964 30.1855 3.83789 30.1855 3.21289C30.1855 2.90039 30.1693 2.61719 30.1367 2.36328C30.1107 2.10938 30.0651 1.89453 30 1.71875C29.9414 1.53646 29.8633 1.39648 29.7656 1.29883C29.6745 1.19466 29.5671 1.14258 29.4434 1.14258C29.3132 1.14258 29.1992 1.2207 29.1016 1.37695C29.0039 1.5332 28.9193 1.74154 28.8477 2.00195C28.776 2.26237 28.7142 2.56185 28.6621 2.90039C28.6165 3.23893 28.5775 3.59375 28.5449 3.96484C28.5124 4.32943 28.4863 4.69727 28.4668 5.06836C28.4473 5.43294 28.431 5.77799 28.418 6.10352C28.4115 6.42253 28.4049 6.70573 28.3984 6.95312C28.3984 7.20052 28.3984 7.38607 28.3984 7.50977C28.3919 7.77018 28.3854 8.0013 28.3789 8.20312C28.3789 8.40495 28.3757 8.60352 28.3691 8.79883C28.3626 8.99414 28.3561 9.20247 28.3496 9.42383C28.3496 9.64518 28.3496 9.9056 28.3496 10.2051ZM28.3203 16.3281C28.3203 16.7383 28.3171 17.1191 28.3105 17.4707C28.3105 17.8288 28.3105 18.1543 28.3105 18.4473C28.3105 19.0527 28.3138 19.6517 28.3203 20.2441C28.3268 20.8366 28.3561 21.3672 28.4082 21.8359C28.4668 22.3112 28.5514 22.6921 28.6621 22.9785C28.7793 23.2715 28.9453 23.418 29.1602 23.418C29.3555 23.418 29.515 23.3301 29.6387 23.1543C29.7624 22.9785 29.8568 22.7702 29.9219 22.5293C29.9935 22.2884 30.0423 22.041 30.0684 21.7871C30.0944 21.5397 30.1074 21.3379 30.1074 21.1816C30.1074 20.7845 30.0684 20.3678 29.9902 19.9316C29.9186 19.4954 29.8047 19.0625 29.6484 18.6328C29.4987 18.2096 29.3132 17.7995 29.0918 17.4023C28.8704 17.0052 28.6133 16.6471 28.3203 16.3281ZM33.1836 13.5742C33.3203 13.763 33.4961 13.916 33.7109 14.0332C33.9258 14.1439 34.1895 14.1992 34.502 14.1992C34.821 14.1992 35.1107 14.1243 35.3711 13.9746C35.6315 13.8184 35.8691 13.6165 36.084 13.3691C36.2988 13.1217 36.4909 12.8451 36.6602 12.5391C36.8294 12.2331 36.9824 11.9271 37.1191 11.6211C37.1517 11.5495 37.1973 11.4974 37.2559 11.4648C37.3145 11.4258 37.3796 11.4062 37.4512 11.4062C37.5618 11.4062 37.6497 11.4453 37.7148 11.5234C37.7865 11.6016 37.8223 11.6862 37.8223 11.7773C37.8223 11.8099 37.819 11.8392 37.8125 11.8652C37.806 11.8848 37.7962 11.9076 37.7832 11.9336C37.334 12.9232 36.8424 13.6686 36.3086 14.1699C35.7812 14.6712 35.1823 14.9284 34.5117 14.9414C34.082 14.9414 33.7109 14.8568 33.3984 14.6875C33.0859 14.5247 32.8288 14.3132 32.627 14.0527C32.4251 13.7858 32.2754 13.4863 32.1777 13.1543C32.0801 12.8223 32.0312 12.4902 32.0312 12.1582C32.0312 11.8262 32.0703 11.5202 32.1484 11.2402C32.2331 10.9603 32.3503 10.7161 32.5 10.5078C32.6562 10.2995 32.8385 10.1367 33.0469 10.0195C33.2617 9.90234 33.4961 9.84375 33.75 9.84375C33.8997 9.84375 34.0462 9.8763 34.1895 9.94141C34.3392 10 34.4727 10.0879 34.5898 10.2051C34.707 10.3158 34.8014 10.4525 34.873 10.6152C34.9447 10.778 34.9805 10.9635 34.9805 11.1719C34.9805 11.4388 34.9349 11.6895 34.8438 11.9238C34.7526 12.1582 34.6257 12.3763 34.4629 12.5781C34.3066 12.7799 34.1178 12.9655 33.8965 13.1348C33.6751 13.304 33.4375 13.4505 33.1836 13.5742ZM32.8906 12.9395C33.0924 12.8548 33.2747 12.7474 33.4375 12.6172C33.6068 12.487 33.75 12.3438 33.8672 12.1875C33.9844 12.0312 34.0755 11.8685 34.1406 11.6992C34.2057 11.5234 34.2383 11.3477 34.2383 11.1719C34.2383 10.9766 34.1895 10.8301 34.0918 10.7324C33.9941 10.6283 33.8802 10.5762 33.75 10.5762C33.5742 10.5762 33.4245 10.625 33.3008 10.7227C33.1771 10.8203 33.0762 10.9473 32.998 11.1035C32.9199 11.2598 32.8613 11.4355 32.8223 11.6309C32.7897 11.8197 32.7734 12.0085 32.7734 12.1973C32.7734 12.3145 32.7832 12.4382 32.8027 12.5684C32.8288 12.6986 32.8581 12.8223 32.8906 12.9395ZM38.3008 13.5742C38.4375 13.763 38.6133 13.916 38.8281 14.0332C39.043 14.1439 39.3066 14.1992 39.6191 14.1992C39.9382 14.1992 40.2279 14.1243 40.4883 13.9746C40.7487 13.8184 40.9863 13.6165 41.2012 13.3691C41.416 13.1217 41.6081 12.8451 41.7773 12.5391C41.9466 12.2331 42.0996 11.9271 42.2363 11.6211C42.2689 11.5495 42.3145 11.4974 42.373 11.4648C42.4316 11.4258 42.4967 11.4062 42.5684 11.4062C42.679 11.4062 42.7669 11.4453 42.832 11.5234C42.9036 11.6016 42.9395 11.6862 42.9395 11.7773C42.9395 11.8099 42.9362 11.8392 42.9297 11.8652C42.9232 11.8848 42.9134 11.9076 42.9004 11.9336C42.4512 12.9232 41.9596 13.6686 41.4258 14.1699C40.8984 14.6712 40.2995 14.9284 39.6289 14.9414C39.1992 14.9414 38.8281 14.8568 38.5156 14.6875C38.2031 14.5247 37.946 14.3132 37.7441 14.0527C37.5423 13.7858 37.3926 13.4863 37.2949 13.1543C37.1973 12.8223 37.1484 12.4902 37.1484 12.1582C37.1484 11.8262 37.1875 11.5202 37.2656 11.2402C37.3503 10.9603 37.4674 10.7161 37.6172 10.5078C37.7734 10.2995 37.9557 10.1367 38.1641 10.0195C38.3789 9.90234 38.6133 9.84375 38.8672 9.84375C39.0169 9.84375 39.1634 9.8763 39.3066 9.94141C39.4564 10 39.5898 10.0879 39.707 10.2051C39.8242 10.3158 39.9186 10.4525 39.9902 10.6152C40.0618 10.778 40.0977 10.9635 40.0977 11.1719C40.0977 11.4388 40.0521 11.6895 39.9609 11.9238C39.8698 12.1582 39.7428 12.3763 39.5801 12.5781C39.4238 12.7799 39.235 12.9655 39.0137 13.1348C38.7923 13.304 38.5547 13.4505 38.3008 13.5742ZM38.0078 12.9395C38.2096 12.8548 38.3919 12.7474 38.5547 12.6172C38.724 12.487 38.8672 12.3438 38.9844 12.1875C39.1016 12.0312 39.1927 11.8685 39.2578 11.6992C39.3229 11.5234 39.3555 11.3477 39.3555 11.1719C39.3555 10.9766 39.3066 10.8301 39.209 10.7324C39.1113 10.6283 38.9974 10.5762 38.8672 10.5762C38.6914 10.5762 38.5417 10.625 38.418 10.7227C38.2943 10.8203 38.1934 10.9473 38.1152 11.1035C38.0371 11.2598 37.9785 11.4355 37.9395 11.6309C37.9069 11.8197 37.8906 12.0085 37.8906 12.1973C37.8906 12.3145 37.9004 12.4382 37.9199 12.5684C37.946 12.6986 37.9753 12.8223 38.0078 12.9395ZM63.9844 4.39453C63.9648 4.48568 63.9225 4.55729 63.8574 4.60938C63.7923 4.66146 63.7207 4.6875 63.6426 4.6875C63.5254 4.6875 63.431 4.65169 63.3594 4.58008C63.2878 4.50195 63.252 4.41406 63.252 4.31641C63.252 4.21875 63.2617 4.12435 63.2812 4.0332C63.3008 3.93555 63.3105 3.84115 63.3105 3.75C63.3105 3.27474 63.1641 2.84831 62.8711 2.4707C62.5781 2.0931 62.1615 1.77734 61.6211 1.52344C61.0872 1.26302 60.4362 1.06445 59.668 0.927734C58.8997 0.791016 58.0436 0.722656 57.0996 0.722656C56.377 0.722656 55.6478 0.771484 54.9121 0.869141C54.1829 0.960286 53.4798 1.09701 52.8027 1.2793C52.1322 1.45508 51.5039 1.67969 50.918 1.95312C50.332 2.22005 49.821 2.53255 49.3848 2.89062C48.9551 3.24219 48.6165 3.63607 48.3691 4.07227C48.1217 4.50195 47.998 4.97396 47.998 5.48828C47.998 5.88542 48.0827 6.23698 48.252 6.54297C48.4277 6.84245 48.6654 7.10612 48.9648 7.33398C49.2643 7.55534 49.6159 7.7474 50.0195 7.91016C50.4297 8.06641 50.8724 8.19987 51.3477 8.31055C51.8229 8.41471 52.3177 8.5026 52.832 8.57422C53.3464 8.63932 53.8639 8.69466 54.3848 8.74023L55.8887 8.86719C56.6374 8.93229 57.3079 9.00065 57.9004 9.07227C58.4928 9.14388 59.0137 9.23503 59.4629 9.3457C60.2116 9.53451 60.765 9.80469 61.123 10.1562C61.4811 10.5078 61.6602 10.9766 61.6602 11.5625C61.6602 12.1289 61.5039 12.627 61.1914 13.0566C60.8789 13.4863 60.4525 13.8477 59.9121 14.1406C59.3717 14.4336 58.7402 14.6549 58.0176 14.8047C57.2949 14.9544 56.5202 15.0293 55.6934 15.0293C54.7949 15.0293 54.0039 14.9674 53.3203 14.8438C52.6432 14.7266 52.0736 14.5964 51.6113 14.4531C51.1556 14.3034 50.8073 14.1667 50.5664 14.043C50.3255 13.9193 50.1953 13.8509 50.1758 13.8379C50.0586 13.7728 50 13.6686 50 13.5254C50 13.4147 50.0391 13.3268 50.1172 13.2617C50.1953 13.1901 50.2799 13.1543 50.3711 13.1543C50.4427 13.1543 50.5078 13.1738 50.5664 13.2129C50.5729 13.2129 50.6836 13.2715 50.8984 13.3887C51.1198 13.4993 51.4453 13.623 51.875 13.7598C52.3112 13.8965 52.8483 14.0202 53.4863 14.1309C54.1243 14.2415 54.8665 14.2969 55.7129 14.2969C56.5527 14.2969 57.2949 14.2285 57.9395 14.0918C58.584 13.9551 59.1243 13.7663 59.5605 13.5254C60.0033 13.278 60.3353 12.9915 60.5566 12.666C60.7845 12.334 60.8984 11.9759 60.8984 11.5918C60.8984 11.3639 60.8561 11.1686 60.7715 11.0059C60.6934 10.8366 60.5827 10.6934 60.4395 10.5762C60.2962 10.4525 60.1237 10.3483 59.9219 10.2637C59.7266 10.179 59.5117 10.1074 59.2773 10.0488C59.0299 9.98372 58.763 9.92839 58.4766 9.88281C58.1966 9.83724 57.9069 9.79818 57.6074 9.76562C57.3079 9.73307 57.0052 9.70378 56.6992 9.67773C56.3997 9.65169 56.1035 9.62565 55.8105 9.59961L54.3066 9.47266C53.1217 9.375 52.0866 9.22526 51.2012 9.02344C50.3223 8.8151 49.5898 8.55143 49.0039 8.23242C48.418 7.9069 47.9785 7.51953 47.6855 7.07031C47.3926 6.62109 47.2461 6.09701 47.2461 5.49805C47.2461 4.88607 47.3828 4.32617 47.6562 3.81836C47.9362 3.30404 48.3138 2.8418 48.7891 2.43164C49.2708 2.02148 49.8307 1.66667 50.4688 1.36719C51.1133 1.0612 51.8001 0.807292 52.5293 0.605469C53.2585 0.403646 54.0137 0.253906 54.7949 0.15625C55.5762 0.0520833 56.3444 0 57.0996 0C58.0436 0 58.8639 0.0585938 59.5605 0.175781C60.2637 0.286458 60.8626 0.432943 61.3574 0.615234C61.8587 0.791016 62.2689 0.992839 62.5879 1.2207C62.9069 1.44857 63.1641 1.67318 63.3594 1.89453C63.8216 2.4349 64.0527 3.05013 64.0527 3.74023C64.0527 3.9681 64.0299 4.1862 63.9844 4.39453ZM65.1465 13.8184C65.2507 13.597 65.3711 13.3594 65.5078 13.1055C65.6445 12.8451 65.791 12.5814 65.9473 12.3145C66.1035 12.041 66.2695 11.7708 66.4453 11.5039C66.6211 11.237 66.8034 10.9863 66.9922 10.752C67.181 10.5241 67.3698 10.3613 67.5586 10.2637C67.7539 10.1595 67.9362 10.1074 68.1055 10.1074C68.2747 10.1074 68.4212 10.1432 68.5449 10.2148C68.6751 10.2799 68.7793 10.3711 68.8574 10.4883C68.9421 10.6055 69.0039 10.7422 69.043 10.8984C69.0885 11.0547 69.1113 11.224 69.1113 11.4062C69.1113 11.556 69.0951 11.7578 69.0625 12.0117C69.0365 12.2591 69.0234 12.5195 69.0234 12.793C69.0234 12.9492 69.0299 13.1055 69.043 13.2617C69.0625 13.4115 69.0918 13.5482 69.1309 13.6719C69.1764 13.7891 69.2415 13.8867 69.3262 13.9648C69.4108 14.0365 69.5215 14.0723 69.6582 14.0723C69.8145 14.0723 69.9707 14.0299 70.127 13.9453C70.2832 13.8542 70.4362 13.737 70.5859 13.5938C70.7357 13.444 70.8789 13.2812 71.0156 13.1055C71.1523 12.9232 71.276 12.7441 71.3867 12.5684C71.4974 12.3861 71.5951 12.2135 71.6797 12.0508C71.7643 11.8815 71.8327 11.7415 71.8848 11.6309C71.9499 11.4811 72.0638 11.4062 72.2266 11.4062C72.3372 11.4062 72.4251 11.4453 72.4902 11.5234C72.5553 11.6016 72.5879 11.6862 72.5879 11.7773C72.5879 11.8294 72.5781 11.8783 72.5586 11.9238C72.5326 11.9759 72.4805 12.0833 72.4023 12.2461C72.3307 12.4089 72.2298 12.5977 72.0996 12.8125C71.9759 13.0273 71.8294 13.252 71.6602 13.4863C71.4909 13.7207 71.3021 13.9388 71.0938 14.1406C70.8919 14.3359 70.6706 14.4987 70.4297 14.6289C70.1953 14.7526 69.9479 14.8145 69.6875 14.8145C69.388 14.8145 69.1471 14.7526 68.9648 14.6289C68.7826 14.4987 68.6393 14.3359 68.5352 14.1406C68.4375 13.9453 68.3691 13.7272 68.3301 13.4863C68.2975 13.2454 68.2812 13.0111 68.2812 12.7832C68.2812 12.666 68.2845 12.5423 68.291 12.4121C68.304 12.2754 68.3171 12.1419 68.3301 12.0117C68.3431 11.8815 68.3529 11.7611 68.3594 11.6504C68.3724 11.5332 68.3789 11.4355 68.3789 11.3574C68.3789 11.1556 68.3496 11.0189 68.291 10.9473C68.2389 10.8757 68.1771 10.8398 68.1055 10.8398C68.0013 10.8398 67.8809 10.9017 67.7441 11.0254C67.6139 11.1426 67.474 11.2988 67.3242 11.4941C67.181 11.6895 67.0345 11.9108 66.8848 12.1582C66.7415 12.3991 66.6016 12.64 66.4648 12.8809C66.3281 13.1217 66.2044 13.3529 66.0938 13.5742C65.9831 13.7891 65.8919 13.9681 65.8203 14.1113C65.6836 14.3848 65.5436 14.5671 65.4004 14.6582C65.2637 14.7559 65.14 14.8047 65.0293 14.8047C64.8275 14.8047 64.6712 14.7266 64.5605 14.5703C64.4564 14.4076 64.4043 14.2122 64.4043 13.9844V13.3691C64.4043 12.1387 64.4043 10.9668 64.4043 9.85352C64.4108 8.73372 64.4271 7.69531 64.4531 6.73828C64.4857 5.77474 64.5345 4.9056 64.5996 4.13086C64.6712 3.34961 64.7754 2.68555 64.9121 2.13867C65.0488 1.58529 65.2214 1.15885 65.4297 0.859375C65.6445 0.559896 65.9115 0.410156 66.2305 0.410156C66.5039 0.410156 66.735 0.485026 66.9238 0.634766C67.1126 0.784505 67.2656 0.989583 67.3828 1.25C67.5 1.50391 67.5846 1.80339 67.6367 2.14844C67.6888 2.48698 67.7148 2.84505 67.7148 3.22266C67.7148 3.99089 67.6432 4.74609 67.5 5.48828C67.3633 6.22396 67.1777 6.94336 66.9434 7.64648C66.709 8.34961 66.4355 9.03646 66.123 9.70703C65.8105 10.3711 65.4818 11.0189 65.1367 11.6504C65.1367 11.7676 65.1367 11.9076 65.1367 12.0703C65.1367 12.2331 65.1367 12.3958 65.1367 12.5586C65.1367 12.7214 65.1367 12.8743 65.1367 13.0176C65.1367 13.1608 65.1367 13.2747 65.1367 13.3594L65.1465 13.8184ZM65.1465 10.2148C65.4199 9.61589 65.6673 9.0332 65.8887 8.4668C66.1165 7.89388 66.3086 7.32422 66.4648 6.75781C66.6276 6.19141 66.7546 5.61849 66.8457 5.03906C66.9368 4.45312 66.9824 3.8444 66.9824 3.21289C66.9824 3.10872 66.9759 2.94271 66.9629 2.71484C66.9564 2.48698 66.9271 2.25586 66.875 2.02148C66.8294 1.78711 66.7546 1.58203 66.6504 1.40625C66.5527 1.23047 66.4128 1.14258 66.2305 1.14258C66.0872 1.14258 65.9635 1.24023 65.8594 1.43555C65.7552 1.62435 65.6641 1.88477 65.5859 2.2168C65.5078 2.54232 65.4427 2.92318 65.3906 3.35938C65.3385 3.79557 65.2962 4.25781 65.2637 4.74609C65.2311 5.23438 65.2051 5.73568 65.1855 6.25C65.1725 6.76432 65.1628 7.26562 65.1562 7.75391C65.1497 8.23568 65.1465 8.68815 65.1465 9.11133C65.1465 9.53451 65.1465 9.90234 65.1465 10.2148ZM76.3965 13.5742C76.2337 13.5742 76.0905 13.5612 75.9668 13.5352C75.8691 13.7305 75.752 13.9128 75.6152 14.082C75.4785 14.2448 75.319 14.388 75.1367 14.5117C74.9609 14.6354 74.7624 14.7331 74.541 14.8047C74.3197 14.8763 74.0788 14.9121 73.8184 14.9121C73.5124 14.9121 73.2324 14.8568 72.9785 14.7461C72.7246 14.6419 72.5033 14.4954 72.3145 14.3066C72.1257 14.1113 71.9792 13.8802 71.875 13.6133C71.7708 13.3398 71.7188 13.0404 71.7188 12.7148C71.7188 12.2982 71.7936 11.9368 71.9434 11.6309C72.0931 11.3184 72.2656 11.0612 72.4609 10.8594C72.6562 10.651 72.8516 10.498 73.0469 10.4004C73.2422 10.2962 73.3887 10.2441 73.4863 10.2441C73.597 10.2441 73.6784 10.2734 73.7305 10.332C73.7891 10.3906 73.8184 10.4688 73.8184 10.5664C73.8184 10.6771 73.7826 10.7617 73.7109 10.8203C73.6458 10.8724 73.5612 10.9245 73.457 10.9766C73.3529 11.0286 73.2422 11.1035 73.125 11.2012C73.0078 11.2923 72.8971 11.4095 72.793 11.5527C72.6953 11.696 72.6139 11.8652 72.5488 12.0605C72.4837 12.2559 72.4512 12.474 72.4512 12.7148C72.4512 12.9297 72.4837 13.1315 72.5488 13.3203C72.6139 13.5026 72.7083 13.6621 72.832 13.7988C72.9557 13.929 73.1022 14.0332 73.2715 14.1113C73.4408 14.1829 73.6296 14.2188 73.8379 14.2188C74.209 14.2188 74.515 14.1341 74.7559 13.9648C75.0033 13.7891 75.1921 13.5677 75.3223 13.3008C74.9382 13.099 74.6224 12.8125 74.375 12.4414C74.1276 12.0703 74.0039 11.6536 74.0039 11.1914C74.0039 10.8203 74.0918 10.5176 74.2676 10.2832C74.4499 10.0488 74.6875 9.93164 74.9805 9.93164C75.1562 9.93164 75.3223 9.97396 75.4785 10.0586C75.6348 10.1432 75.7715 10.2767 75.8887 10.459C76.0124 10.6413 76.11 10.8757 76.1816 11.1621C76.2533 11.4486 76.2891 11.7904 76.2891 12.1875C76.2891 12.3958 76.263 12.6139 76.2109 12.8418C76.25 12.8483 76.2891 12.8516 76.3281 12.8516C76.3672 12.8516 76.4095 12.8516 76.4551 12.8516C76.6764 12.8516 76.875 12.8255 77.0508 12.7734C77.2266 12.7214 77.3861 12.6432 77.5293 12.5391C77.6725 12.4349 77.7995 12.3014 77.9102 12.1387C78.0273 11.9759 78.138 11.7871 78.2422 11.5723C78.2617 11.5332 78.304 11.4974 78.3691 11.4648C78.4342 11.4258 78.4993 11.4062 78.5645 11.4062C78.6491 11.4062 78.7272 11.4421 78.7988 11.5137C78.877 11.5788 78.916 11.6667 78.916 11.7773C78.916 11.8294 78.903 11.888 78.877 11.9531C78.8509 12.0117 78.8249 12.0671 78.7988 12.1191C78.6882 12.3145 78.5579 12.5033 78.4082 12.6855C78.265 12.8613 78.0924 13.0176 77.8906 13.1543C77.6953 13.2845 77.474 13.3887 77.2266 13.4668C76.9792 13.5449 76.7025 13.5807 76.3965 13.5742ZM74.7266 11.1133C74.7266 11.237 74.7428 11.3672 74.7754 11.5039C74.8079 11.6406 74.8568 11.7773 74.9219 11.9141C74.9935 12.0443 75.0781 12.1712 75.1758 12.2949C75.2799 12.4121 75.4004 12.513 75.5371 12.5977C75.5566 12.4609 75.5664 12.3275 75.5664 12.1973C75.5664 12.0215 75.5534 11.8424 75.5273 11.6602C75.5013 11.4779 75.4622 11.3118 75.4102 11.1621C75.3646 11.0059 75.306 10.8822 75.2344 10.791C75.1628 10.6934 75.0781 10.6445 74.9805 10.6445C74.9414 10.6445 74.8893 10.6738 74.8242 10.7324C74.7591 10.791 74.7266 10.918 74.7266 11.1133ZM83.2324 11.9238C83.2324 12.5228 83.125 13.0339 82.9102 13.457C82.6953 13.8802 82.4316 14.2025 82.1191 14.4238H82.1582C82.5423 14.4238 82.8906 14.3392 83.2031 14.1699C83.5221 13.9941 83.8086 13.7728 84.0625 13.5059C84.3164 13.2324 84.5443 12.9297 84.7461 12.5977C84.9479 12.2656 85.127 11.9434 85.2832 11.6309C85.3158 11.5592 85.3613 11.5039 85.4199 11.4648C85.485 11.4258 85.5534 11.4062 85.625 11.4062C85.7357 11.4062 85.8236 11.4453 85.8887 11.5234C85.9538 11.6016 85.9863 11.6862 85.9863 11.7773C85.9863 11.8294 85.9766 11.8783 85.957 11.9238C85.7878 12.3014 85.5859 12.6823 85.3516 13.0664C85.1172 13.444 84.8438 13.7858 84.5312 14.0918C84.2188 14.3978 83.8672 14.6452 83.4766 14.834C83.0859 15.0293 82.653 15.127 82.1777 15.127C81.8327 15.127 81.4974 15.0716 81.1719 14.9609C80.8464 14.8568 80.5599 14.6908 80.3125 14.4629C80.2214 14.3913 80.1432 14.3164 80.0781 14.2383C80.013 14.1536 79.9609 14.0755 79.9219 14.0039C79.9089 13.9909 79.9023 13.9779 79.9023 13.9648C79.8633 13.9062 79.8438 13.8444 79.8438 13.7793C79.8438 13.6947 79.873 13.6165 79.9316 13.5449C79.9382 13.5319 79.9447 13.5254 79.9512 13.5254C79.9577 13.5189 79.9642 13.5124 79.9707 13.5059C80.0358 13.4473 80.1074 13.4147 80.1855 13.4082H80.2148C80.2474 13.4082 80.2702 13.4115 80.2832 13.418C80.2897 13.418 80.293 13.4212 80.293 13.4277C80.2995 13.4277 80.306 13.4277 80.3125 13.4277C80.332 13.4277 80.3548 13.4342 80.3809 13.4473C80.3874 13.4538 80.3939 13.457 80.4004 13.457C80.459 13.4961 80.5078 13.5449 80.5469 13.6035C80.5924 13.6816 80.6445 13.7533 80.7031 13.8184C80.7552 13.8704 80.8171 13.9193 80.8887 13.9648C80.9603 14.0039 81.0417 14.0234 81.1328 14.0234C81.2956 14.0234 81.4583 13.9746 81.6211 13.877C81.7839 13.7793 81.9303 13.6393 82.0605 13.457C82.1908 13.2747 82.2949 13.0534 82.373 12.793C82.4577 12.5326 82.5 12.2428 82.5 11.9238C82.5 11.6895 82.474 11.4909 82.4219 11.3281C82.3763 11.1589 82.3145 11.0221 82.2363 10.918C82.1647 10.8138 82.0866 10.7389 82.002 10.6934C81.9173 10.6413 81.8359 10.6152 81.7578 10.6152C81.582 10.6152 81.403 10.7064 81.2207 10.8887C81.0449 11.071 80.8691 11.3021 80.6934 11.582C80.5176 11.862 80.3418 12.1712 80.166 12.5098C79.9967 12.8483 79.8242 13.1771 79.6484 13.4961C79.6354 14.5508 79.6159 15.5566 79.5898 16.5137C79.5703 17.4707 79.5312 18.3594 79.4727 19.1797C79.4206 20 79.3457 20.7422 79.248 21.4062C79.1504 22.0703 79.0169 22.6367 78.8477 23.1055C78.6784 23.5807 78.4701 23.9453 78.2227 24.1992C77.9753 24.4531 77.6725 24.5801 77.3145 24.5801C77.2038 24.5801 77.0768 24.5573 76.9336 24.5117C76.7904 24.4661 76.6569 24.3717 76.5332 24.2285C76.4095 24.0918 76.3053 23.8932 76.2207 23.6328C76.1361 23.3724 76.0938 23.0241 76.0938 22.5879C76.0938 22.0345 76.1621 21.3932 76.2988 20.6641C76.4355 19.9349 76.6309 19.1602 76.8848 18.3398C77.1322 17.526 77.4284 16.6895 77.7734 15.8301C78.1185 14.9707 78.4993 14.1341 78.916 13.3203C78.916 13.0924 78.916 12.8678 78.916 12.6465C78.9225 12.4251 78.9258 12.2103 78.9258 12.002C78.8411 12.0996 78.7402 12.1484 78.623 12.1484C78.5124 12.1484 78.4245 12.1094 78.3594 12.0312C78.2943 11.9531 78.2617 11.8685 78.2617 11.7773C78.2617 11.7318 78.2715 11.6829 78.291 11.6309C78.4473 11.2728 78.5677 10.9342 78.6523 10.6152C78.737 10.2897 78.7988 10.0065 78.8379 9.76562C78.8835 9.51823 78.9095 9.32292 78.916 9.17969C78.9225 9.03646 78.9258 8.96159 78.9258 8.95508C78.9258 8.85742 78.9616 8.77279 79.0332 8.70117C79.1048 8.62956 79.1927 8.59375 79.2969 8.59375C79.3945 8.59375 79.4792 8.62956 79.5508 8.70117C79.6224 8.76628 79.6582 8.85091 79.6582 8.95508V11.9531C79.8079 11.6992 79.9577 11.4486 80.1074 11.2012C80.2572 10.9538 80.4134 10.7324 80.5762 10.5371C80.7454 10.3418 80.9245 10.1855 81.1133 10.0684C81.3086 9.94466 81.5234 9.88281 81.7578 9.88281C81.9792 9.88281 82.181 9.9349 82.3633 10.0391C82.5456 10.1432 82.7018 10.2865 82.832 10.4688C82.9622 10.651 83.0599 10.8691 83.125 11.123C83.1966 11.3704 83.2324 11.6374 83.2324 11.9238ZM78.8965 15.0586C78.5775 15.7747 78.2878 16.4941 78.0273 17.2168C77.7734 17.9395 77.5586 18.6361 77.3828 19.3066C77.2005 19.9772 77.0605 20.6055 76.9629 21.1914C76.8652 21.7773 76.8164 22.2917 76.8164 22.7344C76.8164 22.8451 76.8229 22.9655 76.8359 23.0957C76.849 23.2259 76.875 23.3464 76.9141 23.457C76.9531 23.5677 77.0085 23.6589 77.0801 23.7305C77.1517 23.8086 77.2461 23.8477 77.3633 23.8477C77.5781 23.8477 77.7637 23.7109 77.9199 23.4375C78.0762 23.1706 78.2064 22.806 78.3105 22.3438C78.4212 21.888 78.5124 21.3607 78.584 20.7617C78.6556 20.1693 78.7109 19.5475 78.75 18.8965C78.7956 18.2454 78.8281 17.5879 78.8477 16.9238C78.8672 16.2663 78.8835 15.6445 78.8965 15.0586Z" fill="#8E6447"/>
</svg>
