<svg width="38" height="13" viewBox="0 0 38 13" fill="none" xmlns="http://www.w3.org/2000/svg">
<path fill-rule="evenodd" clip-rule="evenodd" d="M6.29943 0.428223C6.287 0.428223 6.27458 0.428223 6.26215 0.428223C4.59312 0.428223 2.98725 0.818332 1.43108 1.60533C0.799494 3.11675 0.443324 4.6532 0.424687 6.22094C0.399838 7.77616 0.718217 9.36893 1.42435 10.9935C3.04937 11.7049 4.6744 12.07 6.29943 12.0893C7.92446 12.07 9.54948 11.7049 11.174 10.9935C11.8806 9.36893 12.199 7.77616 12.1742 6.22094C12.1555 4.6532 11.7994 3.11675 11.1678 1.60533C9.61161 0.818332 8.00573 0.428223 6.3367 0.428223C6.32428 0.428223 6.31185 0.428223 6.29943 0.428223Z" fill="#FEFEFE"/>
<path d="M1.16894 1.25951C2.8064 0.415665 4.50597 0 6.26249 0C6.27492 0 6.28734 0 6.29977 0C6.31219 0 6.32461 0 6.33704 0C8.09356 0 9.79313 0.415665 11.4306 1.25951L11.531 1.36643C12.1994 2.95294 12.5809 4.57127 12.5995 6.21464C12.5995 6.24593 12.5995 6.27096 12.5995 6.30278V6.41595C12.5933 7.99621 12.2558 9.60828 11.531 11.2454L11.4182 11.3523C9.71237 12.1143 8.00607 12.4981 6.29977 12.5174C4.59346 12.4981 2.88716 12.1143 1.18137 11.3523L1.06851 11.2454C0.343746 9.60828 0.00621228 7.99621 0 6.41595V6.30278C0 6.27096 0 6.24593 0 6.21464C0.0186368 4.57127 0.400174 2.95294 1.06851 1.36643L1.16894 1.25951ZM6.29977 0.428182C6.28734 0.428182 6.27492 0.428182 6.26249 0.428182C4.59346 0.428182 2.98759 0.818292 1.43141 1.60529C0.79983 3.11671 0.44366 4.65316 0.425023 6.2209C0.400174 7.77612 0.718553 9.36889 1.42468 10.9935C3.04971 11.7049 4.67474 12.0699 6.29977 12.0892C7.92479 12.0699 9.54982 11.7049 11.1743 10.9935C11.881 9.36889 12.1994 7.77612 12.1745 6.2209C12.1559 4.65316 11.7997 3.11671 11.1681 1.60529C9.61194 0.818292 8.00607 0.428182 6.33704 0.428182C6.32461 0.428182 6.31219 0.428182 6.29977 0.428182Z" fill="#003399"/>
<path fill-rule="evenodd" clip-rule="evenodd" d="M6.41161 9.75341C6.32412 8.55075 6.38055 7.29749 6.02438 6.15168C5.69306 5.08148 4.43663 4.47076 4.41178 3.29313C4.38693 2.37366 5.08063 1.30973 6.38055 1.30973C7.59919 1.30347 8.35554 2.19738 8.44303 3.19247C8.54915 4.34455 7.16175 5.11903 6.79936 6.21478C6.42404 7.33557 6.53068 8.57578 6.41161 9.75341Z" fill="#003399"/>
<path fill-rule="evenodd" clip-rule="evenodd" d="M6.89291 9.46315C6.84269 8.41799 6.84269 7.41716 7.13053 6.52898C7.44891 5.52189 8.11155 4.67179 9.12415 4.39485C9.81785 4.20606 10.8361 5.02435 10.6741 5.86194C10.5364 6.53576 9.86755 7.32902 8.79283 7.41716C8.29274 7.46097 8.08049 7.86412 7.7678 8.09725C9.16763 7.95852 10.0741 7.40464 10.7052 6.82522C10.7989 7.31598 10.8615 8.14106 10.48 8.42425C9.73036 8.95935 9.03666 8.52491 8.15503 8.77681C7.66168 8.9218 7.3552 9.23681 6.89291 9.46315Z" fill="#003399"/>
<path fill-rule="evenodd" clip-rule="evenodd" d="M5.93776 9.46315C5.99367 8.41799 5.98746 7.41716 5.70635 6.52898C5.38745 5.52189 4.72533 4.67179 3.71273 4.39485C3.01902 4.20606 1.994 5.02435 2.16277 5.86194C2.30047 6.53576 2.96881 7.32902 4.04405 7.41716C4.53792 7.46097 4.75639 7.86412 5.06907 8.09725C3.66251 7.95852 2.76277 7.40464 2.1317 6.82522C2.038 7.31598 1.97536 8.14106 2.35638 8.42425C3.10651 8.95935 3.80022 8.52491 4.68132 8.77681C5.1752 8.9218 5.47494 9.23681 5.93776 9.46315Z" fill="#003399"/>
<path fill-rule="evenodd" clip-rule="evenodd" d="M9.26851 11.0186V10.8486L9.39379 10.8173L9.26851 10.6285V10.3135L9.83124 11.1005L9.63141 11.1511L9.49371 10.9555L9.26851 11.0186ZM9.26851 10.3135V10.6285L9.18102 10.5023L9.14375 10.8804L9.26851 10.8486V11.0186L9.12511 11.0504L9.09974 11.2831L8.89992 11.3336L9.03141 10.3073L9.23124 10.2567L9.26851 10.3135ZM7.40638 11.5668V11.403H7.44987C7.51872 11.3967 7.56272 11.3905 7.58136 11.3837C7.60621 11.3774 7.63106 11.3587 7.644 11.3399C7.66264 11.3149 7.66885 11.2893 7.66885 11.258C7.66264 11.2267 7.65642 11.2012 7.63727 11.1824C7.62485 11.1636 7.6 11.1511 7.57515 11.1448C7.5503 11.1386 7.49387 11.1386 7.40638 11.1448V10.9811C7.45608 10.9811 7.48766 10.9748 7.50008 10.9748C7.53114 10.9686 7.55651 10.9493 7.57515 10.9305C7.59378 10.9117 7.6 10.8867 7.59378 10.8549C7.59378 10.8236 7.58136 10.7985 7.56272 10.7855C7.5503 10.7667 7.52493 10.7542 7.48766 10.7542C7.47523 10.7542 7.44987 10.7542 7.40638 10.7605V10.5967C7.47523 10.5904 7.52493 10.5904 7.55651 10.5967C7.59378 10.5967 7.63106 10.6097 7.66264 10.6285C7.6937 10.641 7.71855 10.6661 7.74391 10.6974C7.76255 10.7292 7.77498 10.7667 7.78119 10.8111C7.7874 10.8549 7.77498 10.8992 7.75634 10.9367C7.7377 10.9748 7.70612 11.0061 7.66264 11.0311C7.72476 11.0442 7.77497 11.0692 7.80604 11.1068C7.84383 11.1448 7.86246 11.1887 7.86868 11.2455C7.86868 11.2893 7.86246 11.3336 7.85004 11.3774C7.8314 11.4218 7.80604 11.4531 7.77497 11.4849C7.7377 11.5099 7.69991 11.5287 7.65021 11.5412C7.61863 11.5475 7.53736 11.5537 7.4188 11.5668H7.40638ZM8.58723 11.0374L8.78136 11.063C8.76894 11.1699 8.73736 11.258 8.68145 11.3211C8.62502 11.3774 8.54375 11.4218 8.44383 11.4406C8.31855 11.4593 8.20621 11.4343 8.11251 11.3649C8.01259 11.2893 7.95617 11.1824 7.92511 11.0311C7.89974 10.8742 7.91889 10.7417 7.98723 10.641C8.04987 10.5404 8.14978 10.4773 8.28128 10.4522C8.39983 10.4329 8.49353 10.4522 8.58102 10.5086C8.63123 10.5404 8.67472 10.5904 8.7063 10.6661L8.52511 10.7417C8.50647 10.6974 8.47489 10.6598 8.43762 10.641C8.39361 10.616 8.35013 10.6097 8.29991 10.616C8.23106 10.6285 8.18136 10.6661 8.14357 10.7229C8.1063 10.7855 8.10008 10.8679 8.11872 10.9811C8.14357 11.1005 8.18136 11.1824 8.23106 11.2267C8.28128 11.2705 8.34392 11.2893 8.41225 11.2768C8.46247 11.2643 8.50026 11.2392 8.53132 11.2012C8.56238 11.1636 8.58102 11.1068 8.58723 11.0374ZM7.40638 10.5967V10.7605C7.38153 10.7605 7.35616 10.7667 7.3251 10.7667L7.21276 10.7798L7.2314 10.9999L7.36238 10.9873C7.3748 10.9873 7.39396 10.9873 7.40638 10.9811V11.1448C7.40638 11.1448 7.40638 11.1448 7.40017 11.1448L7.25004 11.1574L7.26867 11.4155L7.40638 11.403V11.5668L7.0937 11.5981L7.00621 10.6348L7.38774 10.6035C7.39396 10.5967 7.40017 10.5967 7.40638 10.5967ZM6.20016 11.233V11.0692C6.24365 11.0692 6.26901 11.063 6.28765 11.0567C6.3125 11.0504 6.33114 11.0311 6.35029 11.0124C6.36272 10.9873 6.36893 10.9623 6.36893 10.9367C6.37514 10.8992 6.36272 10.8742 6.34356 10.8486C6.32493 10.8236 6.30008 10.8111 6.26901 10.8048C6.24986 10.8048 6.23122 10.7985 6.20016 10.7985V10.6348C6.29386 10.6348 6.35029 10.641 6.38135 10.6536C6.43778 10.6661 6.48127 10.6974 6.51906 10.748C6.55633 10.7985 6.57497 10.8611 6.56876 10.9367C6.56876 10.9936 6.55633 11.0442 6.5377 11.088C6.51233 11.1255 6.48748 11.1574 6.45642 11.1824C6.41863 11.2012 6.38757 11.2137 6.35029 11.2267C6.3125 11.233 6.2628 11.233 6.20016 11.233ZM6.20016 10.6348V10.7985C6.18153 10.7985 6.15616 10.7985 6.1251 10.7985L6.03139 10.7923V11.0692H6.13131C6.15616 11.0692 6.18153 11.0692 6.20016 11.0692V11.233C6.18774 11.233 6.16858 11.233 6.14995 11.233H6.02518L6.01897 11.5981L5.82484 11.5918L5.84399 10.6285L6.14995 10.6348C6.16858 10.6348 6.18774 10.6348 6.20016 10.6348ZM4.39394 11.1386V10.8424C4.45037 10.8549 4.48764 10.8549 4.50628 10.8549C4.53165 10.8486 4.55028 10.8424 4.56892 10.8236C4.58135 10.8048 4.59377 10.7855 4.59998 10.7542C4.60619 10.7229 4.59998 10.6974 4.58756 10.6723C4.57513 10.6473 4.55028 10.6348 4.5187 10.6223C4.50628 10.616 4.46279 10.6097 4.39394 10.5967V10.4329L4.47522 10.446C4.57513 10.4648 4.64399 10.4835 4.68747 10.5086C4.73148 10.5341 4.76254 10.5717 4.78117 10.6223C4.80033 10.6661 4.80654 10.7229 4.79412 10.7798C4.78117 10.8486 4.75011 10.9055 4.70041 10.943C4.65641 10.9811 4.58756 10.9999 4.50007 10.9999C4.53786 11.0311 4.56892 11.063 4.58756 11.0943C4.61241 11.1323 4.63777 11.1887 4.66883 11.2705L4.75011 11.4786L4.52492 11.4343L4.425 11.2012C4.41258 11.1824 4.40637 11.1574 4.39394 11.1386ZM4.94373 10.5404L5.13113 10.5592L5.08765 11.0817C5.08143 11.1636 5.08143 11.2205 5.08143 11.2392C5.08765 11.2831 5.10628 11.3149 5.13113 11.3399C5.16271 11.3712 5.19998 11.3837 5.25641 11.3905C5.31284 11.3967 5.35633 11.3837 5.38118 11.3649C5.41276 11.3462 5.43139 11.3211 5.44382 11.2893C5.45003 11.258 5.45624 11.2012 5.46245 11.1255L5.50646 10.5904L5.70007 10.6097L5.65659 11.113C5.65038 11.233 5.63743 11.3149 5.6188 11.3587C5.60637 11.403 5.58152 11.4468 5.55616 11.4718C5.52509 11.5037 5.48161 11.5287 5.43139 11.5412C5.38739 11.5605 5.32527 11.5605 5.2502 11.5537C5.1565 11.5475 5.08765 11.5287 5.04364 11.5037C5.00016 11.4786 4.96237 11.4468 4.93752 11.4155C4.91267 11.3774 4.90024 11.3399 4.89403 11.3023C4.88782 11.2455 4.88782 11.1636 4.89403 11.0567L4.94373 10.5404ZM3.42534 10.8236L3.46262 10.6661L3.869 10.773L3.76909 11.1448C3.71887 11.1761 3.65623 11.1949 3.56874 11.2012C3.48747 11.2074 3.41292 11.2012 3.33785 11.1824C3.23742 11.1574 3.15666 11.113 3.10023 11.0567C3.03759 10.9936 3.00032 10.918 2.98168 10.8361C2.96874 10.748 2.96874 10.6598 2.99411 10.5717C3.01896 10.4773 3.06244 10.3954 3.12508 10.326C3.18151 10.2634 3.25658 10.2254 3.34407 10.2066C3.41292 10.1878 3.49368 10.1941 3.58169 10.2191C3.69402 10.2504 3.78151 10.2947 3.83121 10.3641C3.88143 10.4267 3.90628 10.5086 3.90007 10.5967L3.70645 10.5842C3.70645 10.5341 3.69402 10.4898 3.66245 10.4522C3.63138 10.4204 3.59411 10.3891 3.53768 10.3766C3.4564 10.3578 3.38755 10.3641 3.32491 10.4017C3.26279 10.4397 3.21878 10.5148 3.18772 10.616C3.15666 10.7292 3.16287 10.8173 3.19394 10.8867C3.23121 10.9555 3.28764 10.9999 3.3627 11.0186C3.40619 11.0311 3.44398 11.0311 3.48747 11.0311C3.53147 11.0249 3.56874 11.0124 3.60653 10.9999L3.6376 10.8804L3.42534 10.8236ZM4.39394 10.4329L4.06883 10.3766L3.90628 11.3274L4.09368 11.3587L4.16253 10.9623L4.20654 10.9686C4.25002 10.9748 4.2816 10.9873 4.30024 10.9936C4.31888 11.0061 4.3313 11.0249 4.34994 11.0442C4.35615 11.063 4.3753 11.0943 4.39394 11.1386V10.8424C4.3753 10.8424 4.35615 10.8361 4.3313 10.8361L4.19411 10.8111L4.23139 10.5717L4.38152 10.5967C4.38773 10.5967 4.39394 10.5967 4.39394 10.5967V10.4329Z" fill="#003399"/>
<path fill-rule="evenodd" clip-rule="evenodd" d="M34.1802 9.25575V7.47991H34.9552V4.35695L34.1802 5.91843V2.02098H37.2237L37.9987 10.9998H34.9552V9.25575H34.1802ZM34.1802 2.02098V5.91843L33.4052 7.47991H34.1802V9.25575H32.7178L32.1178 10.9054H30.2303V8.8526L32.3362 4.27507H31.905L33.105 2.02098H34.1802ZM30.2303 5.012L31.174 2.75792L30.2303 2.22908V5.012ZM22.7243 4.14938C22.7683 3.89122 22.7683 3.63931 22.7243 3.39993V4.14938ZM30.2303 2.22908V5.012L30.1055 5.31397C28.2428 3.9731 25.4929 5.19454 25.3365 6.61103C25.1807 8.09063 26.2994 9.28704 29.1555 8.39312L28.174 11.0373C24.4057 11.4592 22.9433 9.95461 22.7243 8.19807V7.20298C22.7807 6.7435 22.8992 6.29655 23.0618 5.88088C24.9182 1.23398 27.9302 2.27914 29.0743 2.191L29.243 1.67468L30.2303 2.22908ZM30.2303 8.8526L29.2865 10.9054H30.2303V8.8526ZM19.337 10.8485C21.3555 10.4459 23.3367 8.00249 21.3493 6.05716C22.1243 5.64149 22.6057 4.89257 22.7243 4.14938V3.39993C22.5871 2.62545 21.9933 1.99595 20.8746 1.97717L19.337 1.94536V3.67061H19.9743C20.6556 3.67061 20.5681 5.44644 19.718 5.44644H19.337V6.80661C20.2559 6.98289 19.9308 8.26691 19.337 8.6638V10.8485ZM22.7243 7.20298V8.19807C22.687 7.87054 22.687 7.53676 22.7243 7.20298ZM16.6745 1.88903L15.4311 4.3194L15.9871 4.27507L14.4873 10.9054H18.781C18.9684 10.9054 19.1496 10.8866 19.337 10.8485V8.6638C19.2309 8.73943 19.1118 8.78324 18.9933 8.78324H17.4495L17.962 6.78731H19.118C19.1993 6.78731 19.2744 6.79357 19.337 6.80661V5.44644H18.2618L18.693 3.67061H19.337V1.94536L16.6745 1.88903Z" fill="#003399"/>
</svg>
