<svg width="38" height="13" viewBox="0 0 38 13" fill="none" xmlns="http://www.w3.org/2000/svg">
<path d="M20.6485 10.8432C20.6093 11.5798 20.2815 12.0838 19.6531 12.3896C19.4704 12.478 19.3002 12.4079 19.2172 12.2208C19.153 12.0759 19.2266 11.9118 19.3983 11.8349C19.8436 11.6363 20.0388 11.229 20.0305 10.8453C20.02 10.3784 19.7413 10.0224 19.3023 9.86925C18.8795 9.72235 18.4379 9.86507 18.1258 10.2504C17.8862 10.5463 17.8658 11.0575 18.0762 11.4C18.1926 11.5903 18.3466 11.7335 18.5491 11.8292C18.7401 11.9191 18.8075 12.0854 18.7302 12.25C18.6514 12.4178 18.4645 12.4717 18.2771 12.3765C17.7739 12.1225 17.4441 11.7272 17.3433 11.1663C17.1841 10.2796 17.7369 9.48448 18.5334 9.26386C19.4751 9.00299 20.3791 9.59897 20.59 10.461C20.6229 10.597 20.6328 10.7392 20.6485 10.8432Z" fill="#00AA11"/>
<path d="M23.0528 9.94297C23.0581 9.8724 23.0617 9.81646 23.0664 9.75216C23.2293 9.75216 23.3859 9.75216 23.5524 9.75216C23.556 9.78771 23.5628 9.82169 23.5628 9.85567C23.5633 10.4307 23.5659 11.0063 23.5618 11.5819C23.5586 11.9369 23.4219 12.2291 23.105 12.4079C22.7083 12.6327 22.0893 12.5621 21.7348 12.2636C21.7014 12.2354 21.6696 12.2056 21.6304 12.1706C21.7359 12.0665 21.8392 11.9646 21.953 11.8527C22.13 11.9949 22.3283 12.0665 22.5601 12.0597C22.9176 12.0488 23.0941 11.8527 23.0476 11.4711C22.748 11.7058 22.4181 11.7147 22.0825 11.6023C21.8826 11.5354 21.7249 11.4016 21.6127 11.2144C21.3762 10.8197 21.4373 10.3189 21.7646 10.013C22.1154 9.68524 22.6457 9.65178 23.0528 9.94297ZM23.0325 10.7078C23.0325 10.3743 22.8519 10.1923 22.523 10.1955C22.2135 10.1981 22.0052 10.4015 21.9937 10.6838C21.9791 11.0523 22.2182 11.2181 22.5345 11.2139C22.8597 11.2092 23.0325 11.0372 23.0325 10.7078Z" fill="black"/>
<path d="M31.2963 9.74647C30.9967 10.0293 30.7237 10.2876 30.4465 10.5495C30.7284 10.9248 31.004 11.2918 31.2984 11.6839C31.0969 11.6839 30.9304 11.6892 30.7644 11.6803C30.7258 11.6782 30.6798 11.6369 30.6537 11.6019C30.5003 11.3969 30.3526 11.1878 30.2022 10.9808C30.1772 10.9458 30.15 10.9123 30.1051 10.8527C29.9971 10.9766 29.8593 11.0738 29.8123 11.2045C29.7633 11.341 29.8014 11.5088 29.8014 11.6845C29.7116 11.6845 29.6338 11.6845 29.556 11.6845C29.4819 11.6845 29.4073 11.6845 29.3211 11.6845C29.3175 11.6264 29.3128 11.5799 29.3128 11.5328C29.3123 10.8072 29.3159 10.0811 29.3086 9.3549C29.3076 9.21532 29.3504 9.17507 29.4819 9.18918C29.5816 9.20016 29.6829 9.19127 29.7998 9.19127C29.7998 9.63251 29.7998 10.0581 29.7998 10.5197C29.9517 10.3822 30.0785 10.2698 30.2028 10.1548C30.3296 10.0382 30.4528 9.91795 30.5801 9.80241C30.6078 9.77732 30.6459 9.74961 30.6804 9.74856C30.8725 9.74386 31.0651 9.74647 31.2963 9.74647Z" fill="black"/>
<path d="M27.5456 10.8798C27.5758 11.0847 27.7716 11.2415 27.9971 11.2593C28.1876 11.2745 28.3661 11.2468 28.5217 11.1229C28.5467 11.103 28.6 11.0873 28.6214 11.1004C28.7258 11.1647 28.8234 11.2389 28.933 11.3163C28.5953 11.6535 28.2106 11.746 27.769 11.6368C27.4093 11.5479 27.1489 11.3456 27.0643 10.9765C26.8811 10.1729 27.4991 9.64179 28.2132 9.76308C28.6276 9.83313 28.8855 10.0768 28.9826 10.4824C29.0118 10.6037 29.0035 10.7339 29.0134 10.8798C28.7539 10.8798 28.5123 10.8798 28.2706 10.8798C28.0326 10.8798 27.794 10.8798 27.5456 10.8798ZM28.5044 10.5096C28.471 10.2686 28.2795 10.1536 27.9574 10.1688C27.7267 10.1792 27.5701 10.311 27.5586 10.5096C27.8718 10.5096 28.1839 10.5096 28.5044 10.5096Z" fill="black"/>
<path d="M24.8803 9.71863C25.4514 9.74163 25.8757 10.0976 25.9185 10.6523C25.9473 11.0308 25.7813 11.3346 25.4493 11.5385C25.0688 11.7721 24.4654 11.7094 24.1433 11.3978C23.66 10.9299 23.8077 10.105 24.4267 9.84619C24.5703 9.78607 24.7284 9.76045 24.8803 9.71863ZM25.3997 10.7161C25.3987 10.4014 25.1982 10.1933 24.895 10.1954C24.5546 10.198 24.3766 10.4176 24.3651 10.7172C24.3542 11.0052 24.6006 11.2363 24.8892 11.2342C25.1977 11.2316 25.4007 11.0256 25.3997 10.7161Z" fill="black"/>
<path d="M26.2178 9.74744C26.3927 9.74744 26.5467 9.74744 26.7221 9.74744C26.7221 9.79083 26.7221 9.83265 26.7221 9.87447C26.7221 10.5745 26.7221 11.2745 26.7215 11.9745C26.7215 12.3274 26.5159 12.5329 26.163 12.5339C26.0273 12.5344 25.8911 12.5344 25.7407 12.5344C25.7407 12.4513 25.7407 12.3818 25.7407 12.3122C25.7407 12.2422 25.7407 12.1716 25.7407 12.077C25.8315 12.077 25.914 12.0801 25.996 12.0759C26.1823 12.0671 26.2178 12.0289 26.2178 11.8449C26.2178 11.1982 26.2178 10.5515 26.2178 9.9048C26.2178 9.8567 26.2178 9.80913 26.2178 9.74744Z" fill="black"/>
<path d="M18.3641 10.8503C18.326 10.5669 18.6846 10.2261 18.9889 10.2459C19.3261 10.2684 19.6049 10.5314 19.6028 10.8686C19.6007 11.2042 19.3094 11.5006 18.9743 11.4917C18.6387 11.4829 18.3443 11.2168 18.3641 10.8503Z" fill="#00AA11"/>
<path d="M6.70068 9.9823H7.2211C7.50453 9.9823 7.67208 10.1423 7.67208 10.399C7.67208 10.6598 7.50662 10.8125 7.2211 10.8125H6.85884V11.3337H6.70068V9.9823ZM7.2117 10.6619C7.41788 10.6619 7.51236 10.5788 7.51236 10.399C7.51236 10.2196 7.41371 10.1329 7.2117 10.1329H6.85884V10.6619H7.2117Z" fill="black"/>
<path d="M8.23116 10.2812C8.52034 10.2812 8.71347 10.4993 8.71347 10.8218C8.71347 11.1444 8.52034 11.3624 8.23116 11.3624C7.94407 11.3624 7.75146 11.1444 7.75146 10.8218C7.75146 10.4993 7.94407 10.2812 8.23116 10.2812ZM8.23116 10.4224C8.02916 10.4224 7.90179 10.5766 7.90179 10.8218C7.90179 11.067 8.02916 11.2212 8.23116 11.2212C8.43369 11.2212 8.56314 11.067 8.56314 10.8218C8.56314 10.5766 8.43369 10.4224 8.23116 10.4224Z" fill="black"/>
<path d="M8.81104 10.3099H8.95928L9.14406 11.1056H9.14823L9.42175 10.3099H9.55851L9.83255 11.1056H9.8362L10.0215 10.3099H10.1697L9.92494 11.3336H9.78244L9.49326 10.4976H9.48908L9.19834 11.3336H9.05532L8.81104 10.3099Z" fill="black"/>
<path d="M10.74 10.2812C11.014 10.2812 11.1967 10.4878 11.1967 10.7889V10.8663H10.42C10.4242 11.0633 10.5494 11.2254 10.7363 11.2254C10.8809 11.2254 10.9618 11.1731 11.0485 11.0205L11.1737 11.0958C11.0871 11.2714 10.9388 11.3624 10.74 11.3624C10.4565 11.3624 10.2676 11.1444 10.2676 10.8218C10.2676 10.4993 10.4628 10.2812 10.74 10.2812ZM11.0448 10.7444C11.0427 10.6498 11.0119 10.573 10.9561 10.5108C10.9002 10.4491 10.8287 10.4182 10.74 10.4182C10.5667 10.4182 10.4278 10.573 10.4242 10.7444H11.0448Z" fill="black"/>
<path d="M11.4116 10.31H11.5541V10.3952H11.5578C11.5964 10.3314 11.6716 10.2927 11.7697 10.2927C11.8005 10.2927 11.8355 10.2985 11.872 10.3084L11.8391 10.4647C11.8026 10.4532 11.7681 10.4475 11.7389 10.4475C11.6178 10.4475 11.5614 10.5285 11.5614 10.7193V11.3336H11.4116V10.31Z" fill="black"/>
<path d="M12.4133 10.2812C12.6868 10.2812 12.87 10.4878 12.87 10.7889V10.8663H12.0933C12.097 11.0633 12.2223 11.2254 12.4091 11.2254C12.5537 11.2254 12.6351 11.1731 12.7218 11.0205L12.8471 11.0958C12.7604 11.2714 12.6117 11.3624 12.4133 11.3624C12.1299 11.3624 11.9409 11.1444 11.9409 10.8218C11.9409 10.4993 12.1356 10.2812 12.4133 10.2812ZM12.7176 10.7444C12.7161 10.6498 12.6853 10.573 12.6294 10.5108C12.573 10.4491 12.502 10.4182 12.4133 10.4182C12.24 10.4182 12.1012 10.573 12.097 10.7444H12.7176Z" fill="black"/>
<path d="M13.5037 10.2811C13.6274 10.2811 13.7371 10.3334 13.8044 10.4181H13.8086V9.92407H13.9589V11.3335H13.8143V11.231H13.8101C13.7428 11.3142 13.629 11.3623 13.5037 11.3623C13.2381 11.3623 13.0449 11.1401 13.0449 10.8217C13.0449 10.5033 13.2381 10.2811 13.5037 10.2811ZM13.8086 10.7213C13.8086 10.5551 13.6734 10.4223 13.5037 10.4223C13.3205 10.4223 13.1953 10.5802 13.1953 10.8217C13.1953 11.0632 13.3205 11.2211 13.5137 11.2211C13.6755 11.2211 13.8086 11.0862 13.8086 10.92V10.7213Z" fill="black"/>
<path d="M14.8784 11.2312V11.3336H14.7344V9.92419H14.8842V10.4182H14.8884C14.9557 10.3335 15.0658 10.2813 15.189 10.2813C15.4552 10.2813 15.6478 10.5034 15.6478 10.8218C15.6478 11.1402 15.4552 11.3624 15.189 11.3624C15.0637 11.3624 14.95 11.3143 14.8826 11.2312H14.8784ZM15.189 10.4224C15.0194 10.4224 14.8842 10.5552 14.8842 10.7214V10.9201C14.8842 11.0864 15.0173 11.2212 15.1791 11.2212C15.3722 11.2212 15.4975 11.0634 15.4975 10.8218C15.4975 10.5803 15.3722 10.4224 15.189 10.4224Z" fill="black"/>
<path d="M16.0908 11.2463L15.6978 10.3099H15.858L16.1681 11.0727H16.1717L16.4844 10.3099H16.6441L16.0313 11.7675H15.8752L16.0908 11.2463Z" fill="black"/>
<path d="M4.14607 0C6.43547 0 8.29162 1.79421 8.29162 4.00718C8.29162 6.22015 6.43547 8.01436 4.14607 8.01436C1.85615 8.01436 0 6.22015 0 4.00718C0 1.79421 1.85615 0 4.14607 0Z" fill="#00AED6"/>
<path fill-rule="evenodd" clip-rule="evenodd" d="M6.56426 3.88379C6.53242 3.37355 6.08352 2.9825 5.55527 3.0055H2.93651C2.84099 3.0055 2.76373 2.93075 2.76373 2.83821C2.76373 2.7462 2.84099 2.67144 2.93651 2.67144H5.58972C5.57459 2.32588 5.3303 2.02893 4.98527 1.93692C4.2117 1.80309 3.41986 1.80309 2.64629 1.93692C2.20678 2.04148 1.87794 2.39489 1.81739 2.82828C1.69629 3.61455 1.69629 4.41338 1.81739 5.19913C1.90978 5.65814 2.28665 6.01311 2.76373 6.09101C3.72261 6.20759 4.69297 6.20759 5.65184 6.09101C6.07934 6.00736 6.40244 5.66807 6.4536 5.24932C6.54129 4.79919 6.57835 4.34123 6.56426 3.88379ZM5.70038 4.44474V4.59165C5.70038 4.68366 5.62313 4.75842 5.52761 4.75842C5.43209 4.75842 5.35483 4.68366 5.35483 4.59165V4.44474C5.29898 4.39769 5.26766 4.32921 5.26871 4.25758C5.26871 4.11905 5.38459 4.00717 5.52761 4.00717C5.67063 4.00717 5.78651 4.11905 5.78651 4.25758C5.78599 4.32868 5.75467 4.39665 5.70038 4.44474Z" fill="white"/>
<path d="M20.1001 3.55663C20.1059 2.85401 19.5212 2.27998 18.7941 2.27423C18.067 2.269 17.4735 2.83362 17.4678 3.53625C17.462 4.23887 18.0467 4.81342 18.7738 4.81865C18.7806 4.81865 18.7873 4.81865 18.7941 4.81865C19.4837 4.85472 20.073 4.34291 20.11 3.67635C20.1121 3.63662 20.1121 3.59637 20.1106 3.55663H20.1001ZM16.1895 3.55663C16.1895 2.22091 17.2809 1.20251 18.7941 1.20251C20.3073 1.20251 21.3993 2.22718 21.3993 3.55663C21.3993 4.88556 20.3178 5.91389 18.7941 5.91389C17.2705 5.91389 16.1895 4.8887 16.1895 3.55663Z" fill="black"/>
<path d="M14.1169 3.80001C14.1169 4.35103 13.5365 4.80168 12.801 4.80168C12.125 4.86807 11.5216 4.39181 11.4533 3.73832C11.4465 3.67245 11.4454 3.60606 11.4501 3.53966C11.4501 2.81142 12.0029 2.31058 12.8527 2.31058C13.5438 2.31058 14.1169 2.76803 14.1169 3.28559V3.80001ZM14.1686 1.19861V1.72611C13.7484 1.35702 13.1914 1.16829 12.6246 1.20227C11.2841 1.21377 10.2078 2.27399 10.2198 3.56946C10.2324 4.86493 11.329 5.90581 12.6695 5.89378C13.2212 5.91783 13.7583 5.71812 14.1514 5.34276V5.79341C14.1514 6.40455 13.6059 6.85205 12.8871 6.85205C12.3385 6.89022 11.7978 6.70672 11.3948 6.34443L10.5549 7.126C11.1844 7.72302 12.04 8.04401 12.9216 8.01421C14.3936 8.01421 15.402 7.05908 15.402 5.78713V1.19861H14.1686Z" fill="black"/>
<path d="M22.1597 1.3358H23.3962V1.72999H23.4135C23.819 1.3724 24.3546 1.18524 24.9027 1.20876C26.2488 1.25791 27.2991 2.35263 27.2484 3.65333C27.2004 4.88606 26.1779 5.87414 24.9027 5.92066C24.3791 5.93217 23.8681 5.76592 23.4584 5.44963V7.68037H22.1701L22.1597 1.3358ZM24.7022 2.3108C24.0111 2.3108 23.4484 2.77504 23.4484 3.27953V3.84362C23.4484 4.38105 24.0043 4.82542 24.709 4.82542C25.4278 4.86097 26.0401 4.3272 26.0771 3.63294C26.1142 2.93867 25.5619 2.34688 24.8432 2.3108C24.7988 2.30871 24.7539 2.30871 24.709 2.3108H24.7022Z" fill="black"/>
<path d="M29.7221 3.12589C30.5687 3.01558 30.8209 2.89848 30.8209 2.67159C30.8209 2.37778 30.4998 2.20056 30.0019 2.20056C29.4658 2.15821 28.9777 2.50011 28.8514 3.00565L27.6357 2.76151C27.8085 1.85342 28.7757 1.20569 29.9674 1.20569C31.3152 1.20569 32.1509 1.87329 32.1509 2.95546V5.79055H30.9936V5.29651H30.9764C30.5839 5.72363 30.0081 5.95052 29.4183 5.91079C28.3989 5.91079 27.6905 5.37284 27.6905 4.57506C27.6905 3.77677 28.271 3.31933 29.7221 3.12589ZM30.9247 3.5964H30.9075C30.7932 3.7569 30.562 3.85048 29.9225 3.95713C29.1662 4.0941 28.8864 4.23787 28.8864 4.49821C28.8864 4.75856 29.1109 4.8856 29.5979 4.8856C30.3406 4.8856 30.9143 4.55154 30.9143 4.12756L30.9247 3.5964Z" fill="black"/>
<path d="M34.4828 5.53984L32.3511 1.33557H33.7714L35.1703 4.24751H35.1912L36.5728 1.33557H37.9999L34.8075 7.68014H33.3877L34.4828 5.53984Z" fill="black"/>
</svg>
