<svg width="20" height="21" viewBox="0 0 20 21" fill="none" xmlns="http://www.w3.org/2000/svg">
<path fill-rule="evenodd" clip-rule="evenodd" d="M13.9616 19.972H5.61379C2.54743 19.972 0.195028 18.8644 0.86322 14.4067L1.64125 8.36555C2.05315 6.1413 3.47192 5.29004 4.71677 5.29004H14.8953C16.1584 5.29004 17.4948 6.20537 17.9708 8.36555L18.7488 14.4067C19.3163 18.361 17.028 19.972 13.9616 19.972Z" stroke="#4F5665" stroke-width="1.5" stroke-linecap="round" stroke-linejoin="round"/>
<path d="M14.0985 5.07041C14.0985 2.68433 12.1642 0.750039 9.77813 0.750039V0.750039C8.62912 0.74517 7.52551 1.1982 6.71132 2.00895C5.89714 2.81971 5.43944 3.92139 5.43945 5.07041H5.43945" stroke="#4F5665" stroke-width="1.5" stroke-linecap="round" stroke-linejoin="round"/>
<path d="M12.7442 9.57388H12.6985" stroke="#4F5665" stroke-width="1.5" stroke-linecap="round" stroke-linejoin="round"/>
<path d="M6.91317 9.57388H6.8674" stroke="#4F5665" stroke-width="1.5" stroke-linecap="round" stroke-linejoin="round"/>
</svg>
