<svg width="16" height="16" viewBox="0 0 16 16" fill="none" xmlns="http://www.w3.org/2000/svg">
<path fill-rule="evenodd" clip-rule="evenodd" d="M10.9681 1.8233V2.51323C12.9739 2.70783 14 3.81643 14 5.80956V11.3231C14 13.5403 12.7362 14.6666 10.2493 14.6666H5.75072C3.26377 14.6666 2 13.5403 2 11.3231V5.80956C2 4.48277 2.45217 3.53338 3.37971 2.97908C3.52592 2.87928 3.71509 2.87231 3.86801 2.96109C4.02094 3.04988 4.11124 3.21909 4.10113 3.39791C4.09101 3.57672 3.98222 3.73428 3.82029 3.80464C3.2058 4.17024 2.91594 4.8071 2.91594 5.80956V5.98646H11.3739C11.6268 5.98646 11.8319 6.19503 11.8319 6.45231C11.8319 6.70959 11.6268 6.91816 11.3739 6.91816H2.91594V11.3231C2.91594 13.0155 3.73913 13.7172 5.75072 13.729H10.2493C12.2319 13.729 13.0783 13.0096 13.0783 11.3172V5.80366C13.0783 4.32945 12.4348 3.61594 10.9681 3.44493V3.89309C10.9343 4.13196 10.7287 4.30634 10.4916 4.29724C10.2545 4.28814 10.0624 4.09849 10.0464 3.85771V1.78202C10.0509 1.65737 10.1043 1.53976 10.1948 1.45553C10.2852 1.37129 10.4051 1.32747 10.5275 1.33387C10.78 1.34966 10.9748 1.56607 10.9681 1.8233ZM5.80585 4.19511C5.71871 4.28265 5.60072 4.33103 5.47826 4.32945C5.2276 4.32302 5.02863 4.11274 5.03188 3.85771V1.8233C5.05824 1.58464 5.25665 1.40422 5.49275 1.40422C5.72885 1.40422 5.92727 1.58464 5.95362 1.8233V2.46606H8.57391C8.82684 2.46606 9.03188 2.67462 9.03188 2.93191C9.03188 3.18919 8.82684 3.39775 8.57391 3.39775H5.94203V3.8636C5.94204 3.98818 5.89299 4.10758 5.80585 4.19511ZM10.7942 8.41005C10.474 8.41005 10.2145 8.67406 10.2145 8.99974C10.2145 9.32541 10.474 9.58942 10.7942 9.58942C11.1144 9.58942 11.3739 9.32541 11.3739 8.99974C11.3739 8.84232 11.312 8.69143 11.2021 8.58067C11.0921 8.46991 10.9432 8.40848 10.7884 8.41005H10.7942ZM7.43188 8.99974C7.43188 8.67406 7.69143 8.41005 8.01159 8.41005C8.33176 8.41005 8.5913 8.67406 8.5913 8.99974C8.5913 9.32541 8.33176 9.58942 8.01159 9.58942C7.69143 9.58942 7.43188 9.32541 7.43188 8.99974ZM5.23478 8.41005C4.91462 8.41005 4.65507 8.67406 4.65507 8.99974C4.65507 9.32541 4.91462 9.58942 5.23478 9.58942C5.55495 9.58942 5.81449 9.32541 5.81449 8.99974C5.8145 8.84232 5.75263 8.69143 5.64266 8.58067C5.53268 8.46991 5.38374 8.40848 5.22899 8.41005H5.23478ZM10.2145 11.388C10.2145 11.0623 10.474 10.7983 10.7942 10.7983H10.7884C10.9432 10.7967 11.0921 10.8581 11.2021 10.9689C11.312 11.0796 11.3739 11.2305 11.3739 11.388C11.3739 11.7136 11.1144 11.9776 10.7942 11.9776C10.474 11.9776 10.2145 11.7136 10.2145 11.388ZM8.01159 10.7983C7.69143 10.7983 7.43188 11.0623 7.43188 11.388C7.43188 11.7136 7.69143 11.9776 8.01159 11.9776C8.33176 11.9776 8.5913 11.7136 8.5913 11.388C8.5913 11.0623 8.33176 10.7983 8.01159 10.7983ZM4.65507 11.388C4.65507 11.0623 4.91462 10.7983 5.23478 10.7983H5.22899C5.38374 10.7967 5.53268 10.8581 5.64266 10.9689C5.75263 11.0796 5.8145 11.2305 5.81449 11.388C5.81449 11.7136 5.55495 11.9776 5.23478 11.9776C4.91462 11.9776 4.65507 11.7136 4.65507 11.388Z" fill="#130F26"/>
</svg>
