<svg width="945" height="171" viewBox="0 0 945 171" fill="none" xmlns="http://www.w3.org/2000/svg">
<path d="M-2.14987 117.497C-16.2351 122.926 -26.799 125.037 -30.3203 125.414V171.786H962.688V2.13501C948.211 14.1991 913.624 36.97 891.088 31.5411C862.917 24.7551 831.226 25.8861 810.098 31.5411C788.97 37.1962 776.059 45.1132 752.583 46.2442C729.108 47.3752 736.15 41.7202 699.764 38.3272C663.377 34.9341 648.118 67.7333 630.511 76.7813C612.905 85.8294 568.302 83.5674 551.869 76.7813C535.436 69.9953 521.351 67.7333 508.439 67.7333C495.528 67.7333 495.528 75.6503 476.748 76.7813C457.967 77.9124 439.187 66.6023 413.364 67.7333C387.541 68.8643 352.328 90.3534 325.332 91.4844C298.335 92.6154 314.768 85.8294 276.033 83.5674C237.299 81.3054 206.781 110.711 182.132 117.497C157.483 124.283 121.096 109.58 101.142 105.056C81.1877 100.532 62.4074 117.497 47.1484 117.497C31.8894 117.497 15.4567 110.711 -2.14987 117.497Z" fill="#00A700" fill-opacity="0.1" stroke="#00A700" stroke-width="2"/>
</svg>
