<svg width="17" height="17" viewBox="0 0 17 17" fill="none" xmlns="http://www.w3.org/2000/svg">
<path fill-rule="evenodd" clip-rule="evenodd" d="M3.19523 2.1001C2.59036 2.1001 2.09961 2.5991 2.09961 3.21338V3.86861C2.09961 4.32363 2.27264 4.7612 2.58216 5.09034L5.97418 8.69712L5.97567 8.69485C6.63051 9.36525 6.99895 10.2715 6.99895 11.2164V14.4167C6.99895 14.6306 7.22269 14.7671 7.4084 14.6662L9.3401 13.6136C9.63171 13.4544 9.8137 13.1449 9.8137 12.809V11.2081C9.8137 10.2685 10.1769 9.366 10.8258 8.69712L14.2178 5.09034C14.5266 4.7612 14.6996 4.32363 14.6996 3.86861V3.21338C14.6996 2.5991 14.2096 2.1001 13.6047 2.1001H3.19523Z" stroke="#130F26" stroke-width="1.5" stroke-linecap="round" stroke-linejoin="round"/>
</svg>
